<?xml version="1.0" encoding="utf-8"?>
<svg version="1.1" id="b3" xmlns="http://www.w3.org/2000/svg" xmlns:xlink="http://www.w3.org/1999/xlink" x="0px" y="0px"
	 viewBox="0 0 2048 720" enable-background="new 0 0 2048 720" xml:space="preserve">
<linearGradient id="XMLID_2_" gradientUnits="userSpaceOnUse" x1="616.5" y1="499.2215" x2="616.5" y2="420.35">
	<stop  offset="0" style="stop-color:#5E307F"/>
	<stop  offset="1" style="stop-color:#7F5CCC"/>
</linearGradient>
<polygon id="XMLID_59_" fill="url(#XMLID_2_)" points="648,451.5 585,467.7 585,483.8 648,483.8 "/>
<linearGradient id="XMLID_3_" gradientUnits="userSpaceOnUse" x1="661.5" y1="499.4157" x2="661.5" y2="718.0607">
	<stop  offset="0" style="stop-color:#5E307F"/>
	<stop  offset="1" style="stop-color:#7F5CCC"/>
</linearGradient>
<rect id="XMLID_4_" x="556" y="499" fill="url(#XMLID_3_)" width="211" height="221"/>
<linearGradient id="XMLID_6_" gradientUnits="userSpaceOnUse" x1="661.5" y1="509.5666" x2="661.5" y2="465.6588">
	<stop  offset="0" style="stop-color:#5E307F"/>
	<stop  offset="1" style="stop-color:#7F5CCC"/>
</linearGradient>
<rect id="XMLID_5_" x="551" y="483" fill="url(#XMLID_6_)" width="221" height="18"/>
<linearGradient id="XMLID_7_" gradientUnits="userSpaceOnUse" x1="661.5" y1="632.6147" x2="661.5" y2="593.5856">
	<stop  offset="0" style="stop-color:#5E307F"/>
	<stop  offset="1" style="stop-color:#7F5CCC"/>
</linearGradient>
<rect id="XMLID_12_" x="551" y="609" fill="url(#XMLID_7_)" width="221" height="16"/>
<linearGradient id="XMLID_8_" gradientUnits="userSpaceOnUse" x1="598" y1="610.6035" x2="598" y2="469.1227">
	<stop  offset="0" style="stop-color:#FFB842"/>
	<stop  offset="1" style="stop-color:#FFFFBE"/>
</linearGradient>
<rect id="XMLID_9_" x="585" y="525" fill="url(#XMLID_8_)" width="26" height="58"/>
<linearGradient id="XMLID_10_" gradientUnits="userSpaceOnUse" x1="661.5" y1="610.6035" x2="661.5" y2="469.1227">
	<stop  offset="0" style="stop-color:#FFB842"/>
	<stop  offset="1" style="stop-color:#FFFFBE"/>
</linearGradient>
<rect id="XMLID_14_" x="648" y="525" fill="url(#XMLID_10_)" width="27" height="58"/>
<linearGradient id="XMLID_11_" gradientUnits="userSpaceOnUse" x1="725" y1="610.6035" x2="725" y2="469.1227">
	<stop  offset="0.8418" style="stop-color:#553665"/>
	<stop  offset="1" style="stop-color:#683BC4"/>
</linearGradient>
<rect id="XMLID_15_" x="712" y="525" fill="url(#XMLID_11_)" width="26" height="58"/>
<linearGradient id="XMLID_13_" gradientUnits="userSpaceOnUse" x1="598" y1="730.6035" x2="598" y2="589.1227">
	<stop  offset="0" style="stop-color:#FFB842"/>
	<stop  offset="1" style="stop-color:#FFFFBE"/>
</linearGradient>
<rect id="XMLID_97_" x="585" y="645" fill="url(#XMLID_13_)" width="26" height="58"/>
<linearGradient id="XMLID_16_" gradientUnits="userSpaceOnUse" x1="661.5" y1="730.6035" x2="661.5" y2="589.1227">
	<stop  offset="0.8418" style="stop-color:#553665"/>
	<stop  offset="1" style="stop-color:#683BC4"/>
</linearGradient>
<rect id="XMLID_96_" x="648" y="645" fill="url(#XMLID_16_)" width="27" height="58"/>
<linearGradient id="XMLID_17_" gradientUnits="userSpaceOnUse" x1="725" y1="730.6035" x2="725" y2="589.1227">
	<stop  offset="0.8418" style="stop-color:#553665"/>
	<stop  offset="1" style="stop-color:#683BC4"/>
</linearGradient>
<rect id="XMLID_95_" x="712" y="645" fill="url(#XMLID_17_)" width="26" height="58"/>
<linearGradient id="XMLID_18_" gradientUnits="userSpaceOnUse" x1="872.5" y1="526.3649" x2="872.5" y2="718.2977">
	<stop  offset="0" style="stop-color:#5E307F"/>
	<stop  offset="1" style="stop-color:#7F5CCC"/>
</linearGradient>
<rect id="XMLID_58_" x="767" y="526" fill="url(#XMLID_18_)" width="211" height="194"/>
<linearGradient id="XMLID_19_" gradientUnits="userSpaceOnUse" x1="872.5" y1="532.6629" x2="872.5" y2="498.5124">
	<stop  offset="0" style="stop-color:#5E307F"/>
	<stop  offset="1" style="stop-color:#7F5CCC"/>
</linearGradient>
<rect id="XMLID_57_" x="762" y="512" fill="url(#XMLID_19_)" width="221" height="14"/>
<linearGradient id="XMLID_20_" gradientUnits="userSpaceOnUse" x1="809" y1="624.272" x2="809" y2="499.8665">
	<stop  offset="0.8418" style="stop-color:#553665"/>
	<stop  offset="1" style="stop-color:#683BC4"/>
</linearGradient>
<rect id="XMLID_54_" x="796" y="549" fill="url(#XMLID_20_)" width="26" height="51"/>
<linearGradient id="XMLID_21_" gradientUnits="userSpaceOnUse" x1="872.5" y1="624.272" x2="872.5" y2="499.8665">
	<stop  offset="0" style="stop-color:#FFB842"/>
	<stop  offset="1" style="stop-color:#FFFFBE"/>
</linearGradient>
<rect id="XMLID_53_" x="859" y="549" fill="url(#XMLID_21_)" width="27" height="51"/>
<linearGradient id="XMLID_23_" gradientUnits="userSpaceOnUse" x1="936" y1="624.272" x2="936" y2="499.8665">
	<stop  offset="0.8418" style="stop-color:#553665"/>
	<stop  offset="1" style="stop-color:#683BC4"/>
</linearGradient>
<rect id="XMLID_52_" x="923" y="549" fill="url(#XMLID_23_)" width="26" height="51"/>
<linearGradient id="XMLID_25_" gradientUnits="userSpaceOnUse" x1="809" y1="734.272" x2="809" y2="609.8665">
	<stop  offset="0" style="stop-color:#FFB842"/>
	<stop  offset="1" style="stop-color:#FFFFBE"/>
</linearGradient>
<rect id="XMLID_100_" x="796" y="659" fill="url(#XMLID_25_)" width="26" height="51"/>
<linearGradient id="XMLID_26_" gradientUnits="userSpaceOnUse" x1="872.5" y1="734.272" x2="872.5" y2="609.8665">
	<stop  offset="0" style="stop-color:#FFB842"/>
	<stop  offset="1" style="stop-color:#FFFFBE"/>
</linearGradient>
<rect id="XMLID_99_" x="859" y="659" fill="url(#XMLID_26_)" width="27" height="51"/>
<linearGradient id="XMLID_27_" gradientUnits="userSpaceOnUse" x1="936" y1="734.272" x2="936" y2="609.8665">
	<stop  offset="0.8418" style="stop-color:#553665"/>
	<stop  offset="1" style="stop-color:#683BC4"/>
</linearGradient>
<rect id="XMLID_98_" x="923" y="659" fill="url(#XMLID_27_)" width="26" height="51"/>
<linearGradient id="XMLID_28_" gradientUnits="userSpaceOnUse" x1="872.5" y1="521.0425" x2="872.5" y2="474.6953">
	<stop  offset="0" style="stop-color:#5E307F"/>
	<stop  offset="1" style="stop-color:#7F5CCC"/>
</linearGradient>
<rect id="XMLID_51_" x="767" y="493" fill="url(#XMLID_28_)" width="211" height="19"/>
<linearGradient id="XMLID_31_" gradientUnits="userSpaceOnUse" x1="1083.5" y1="526.3649" x2="1083.5" y2="718.2977">
	<stop  offset="0" style="stop-color:#5E307F"/>
	<stop  offset="1" style="stop-color:#7F5CCC"/>
</linearGradient>
<rect id="XMLID_117_" x="978" y="526" fill="url(#XMLID_31_)" width="211" height="194"/>
<linearGradient id="XMLID_32_" gradientUnits="userSpaceOnUse" x1="1083.5" y1="532.6629" x2="1083.5" y2="498.5124">
	<stop  offset="0" style="stop-color:#5E307F"/>
	<stop  offset="1" style="stop-color:#7F5CCC"/>
</linearGradient>
<rect id="XMLID_116_" x="973" y="512" fill="url(#XMLID_32_)" width="221" height="14"/>
<linearGradient id="XMLID_35_" gradientUnits="userSpaceOnUse" x1="975.5" y1="812.329" x2="975.5" y2="339.0999" gradientTransform="matrix(-1 0 0 -1 1953 1246)">
	<stop  offset="0" style="stop-color:#5E307F"/>
	<stop  offset="1" style="stop-color:#7F5CCC"/>
</linearGradient>
<rect id="XMLID_104_" x="974.7" y="526" fill="url(#XMLID_35_)" width="5.7" height="194"/>
<linearGradient id="XMLID_37_" gradientUnits="userSpaceOnUse" x1="1083.5" y1="642.6629" x2="1083.5" y2="608.5124">
	<stop  offset="0" style="stop-color:#5E307F"/>
	<stop  offset="1" style="stop-color:#7F5CCC"/>
</linearGradient>
<rect id="XMLID_115_" x="973" y="622" fill="url(#XMLID_37_)" width="221" height="14"/>
<linearGradient id="XMLID_38_" gradientUnits="userSpaceOnUse" x1="872.5" y1="642.6629" x2="872.5" y2="608.5124">
	<stop  offset="0" style="stop-color:#5E307F"/>
	<stop  offset="1" style="stop-color:#7F5CCC"/>
</linearGradient>
<rect id="XMLID_55_" x="762" y="622" fill="url(#XMLID_38_)" width="221" height="14"/>
<linearGradient id="XMLID_42_" gradientUnits="userSpaceOnUse" x1="1129.5" y1="624.272" x2="1129.5" y2="499.8665">
	<stop  offset="0" style="stop-color:#FFB842"/>
	<stop  offset="1" style="stop-color:#FFFFBE"/>
</linearGradient>
<rect id="XMLID_112_" x="1112" y="549" fill="url(#XMLID_42_)" width="35" height="51"/>
<linearGradient id="XMLID_43_" gradientUnits="userSpaceOnUse" x1="1129.5" y1="734.272" x2="1129.5" y2="609.8665">
	<stop  offset="0.8418" style="stop-color:#553665"/>
	<stop  offset="1" style="stop-color:#683BC4"/>
</linearGradient>
<rect id="XMLID_103_" x="1112" y="659" fill="url(#XMLID_43_)" width="35" height="51"/>
<linearGradient id="XMLID_44_" gradientUnits="userSpaceOnUse" x1="1036.5" y1="624.272" x2="1036.5" y2="499.8665">
	<stop  offset="0.8418" style="stop-color:#553665"/>
	<stop  offset="1" style="stop-color:#683BC4"/>
</linearGradient>
<rect id="XMLID_125_" x="1019" y="549" fill="url(#XMLID_44_)" width="35" height="51"/>
<linearGradient id="XMLID_45_" gradientUnits="userSpaceOnUse" x1="1036.5" y1="734.272" x2="1036.5" y2="609.8665">
	<stop  offset="0.8418" style="stop-color:#553665"/>
	<stop  offset="1" style="stop-color:#683BC4"/>
</linearGradient>
<rect id="XMLID_113_" x="1019" y="659" fill="url(#XMLID_45_)" width="35" height="51"/>
<linearGradient id="XMLID_46_" gradientUnits="userSpaceOnUse" x1="1083.5" y1="457.0885" x2="1083.5" y2="432.8096">
	<stop  offset="0" style="stop-color:#5E307F"/>
	<stop  offset="1" style="stop-color:#7F5CCC"/>
</linearGradient>
<polygon id="XMLID_102_" fill="url(#XMLID_46_)" points="1183,442.4 983,442.4 978,452.4 1189,452.4 "/>
<linearGradient id="XMLID_47_" gradientUnits="userSpaceOnUse" x1="1651.5" y1="499.4157" x2="1651.5" y2="718.0607">
	<stop  offset="0" style="stop-color:#5E307F"/>
	<stop  offset="1" style="stop-color:#7F5CCC"/>
</linearGradient>
<rect id="XMLID_153_" x="1546" y="499" fill="url(#XMLID_47_)" width="211" height="221"/>
<linearGradient id="XMLID_48_" gradientUnits="userSpaceOnUse" x1="1651.5" y1="506.6148" x2="1651.5" y2="467.5856">
	<stop  offset="0" style="stop-color:#5E307F"/>
	<stop  offset="1" style="stop-color:#7F5CCC"/>
</linearGradient>
<rect id="XMLID_152_" x="1541" y="483" fill="url(#XMLID_48_)" width="221" height="16"/>
<linearGradient id="XMLID_49_" gradientUnits="userSpaceOnUse" x1="1651.5" y1="632.6147" x2="1651.5" y2="593.5856">
	<stop  offset="0" style="stop-color:#5E307F"/>
	<stop  offset="1" style="stop-color:#7F5CCC"/>
</linearGradient>
<rect id="XMLID_151_" x="1541" y="609" fill="url(#XMLID_49_)" width="221" height="16"/>
<linearGradient id="XMLID_50_" gradientUnits="userSpaceOnUse" x1="1588" y1="610.6035" x2="1588" y2="469.1227">
	<stop  offset="0" style="stop-color:#FFB842"/>
	<stop  offset="1" style="stop-color:#FFFFBE"/>
</linearGradient>
<rect id="XMLID_150_" x="1575" y="525" fill="url(#XMLID_50_)" width="26" height="58"/>
<linearGradient id="XMLID_130_" gradientUnits="userSpaceOnUse" x1="1651.5" y1="610.6035" x2="1651.5" y2="469.1227">
	<stop  offset="0.8418" style="stop-color:#553665"/>
	<stop  offset="1" style="stop-color:#683BC4"/>
</linearGradient>
<rect id="XMLID_149_" x="1638" y="525" fill="url(#XMLID_130_)" width="27" height="58"/>
<linearGradient id="XMLID_134_" gradientUnits="userSpaceOnUse" x1="1715" y1="610.6035" x2="1715" y2="469.1227">
	<stop  offset="0.8418" style="stop-color:#553665"/>
	<stop  offset="1" style="stop-color:#683BC4"/>
</linearGradient>
<rect id="XMLID_148_" x="1702" y="525" fill="url(#XMLID_134_)" width="26" height="58"/>
<linearGradient id="XMLID_135_" gradientUnits="userSpaceOnUse" x1="1861.5" y1="695.0471" x2="1861.5" y2="719.7806">
	<stop  offset="0" style="stop-color:#5E307F"/>
	<stop  offset="1" style="stop-color:#7F5CCC"/>
</linearGradient>
<rect id="XMLID_182_" x="1756" y="695" fill="url(#XMLID_135_)" width="211" height="25"/>
<linearGradient id="XMLID_136_" gradientUnits="userSpaceOnUse" x1="1861.5" y1="702.6147" x2="1861.5" y2="663.5856">
	<stop  offset="0" style="stop-color:#5E307F"/>
	<stop  offset="1" style="stop-color:#7F5CCC"/>
</linearGradient>
<rect id="XMLID_181_" x="1751" y="679" fill="url(#XMLID_136_)" width="221" height="16"/>
<linearGradient id="XMLID_154_" gradientUnits="userSpaceOnUse" x1="1798" y1="721.9037" x2="1798" y2="712.1464">
	<stop  offset="0" style="stop-color:#FFB842"/>
	<stop  offset="1" style="stop-color:#FFFFBE"/>
</linearGradient>
<rect id="XMLID_180_" x="1785" y="716" fill="url(#XMLID_154_)" width="26" height="4"/>
<linearGradient id="XMLID_155_" gradientUnits="userSpaceOnUse" x1="1861.5" y1="721.9037" x2="1861.5" y2="712.1464">
	<stop  offset="0.8418" style="stop-color:#553665"/>
	<stop  offset="1" style="stop-color:#683BC4"/>
</linearGradient>
<rect id="XMLID_179_" x="1848" y="716" fill="url(#XMLID_155_)" width="27" height="4"/>
<linearGradient id="XMLID_156_" gradientUnits="userSpaceOnUse" x1="1925" y1="721.9037" x2="1925" y2="712.1464">
	<stop  offset="0" style="stop-color:#FFB842"/>
	<stop  offset="1" style="stop-color:#FFFFBE"/>
</linearGradient>
<rect id="XMLID_178_" x="1912" y="716" fill="url(#XMLID_156_)" width="26" height="4"/>
<linearGradient id="XMLID_157_" gradientUnits="userSpaceOnUse" x1="1588" y1="730.6035" x2="1588" y2="589.1227">
	<stop  offset="0" style="stop-color:#FFB842"/>
	<stop  offset="1" style="stop-color:#FFFFBE"/>
</linearGradient>
<rect id="XMLID_147_" x="1575" y="645" fill="url(#XMLID_157_)" width="26" height="58"/>
<linearGradient id="XMLID_158_" gradientUnits="userSpaceOnUse" x1="1651.5" y1="730.6035" x2="1651.5" y2="589.1227">
	<stop  offset="0.8418" style="stop-color:#553665"/>
	<stop  offset="1" style="stop-color:#683BC4"/>
</linearGradient>
<rect id="XMLID_146_" x="1638" y="645" fill="url(#XMLID_158_)" width="27" height="58"/>
<linearGradient id="XMLID_159_" gradientUnits="userSpaceOnUse" x1="1715" y1="730.6035" x2="1715" y2="589.1227">
	<stop  offset="0" style="stop-color:#FFB842"/>
	<stop  offset="1" style="stop-color:#FFFFBE"/>
</linearGradient>
<rect id="XMLID_145_" x="1702" y="645" fill="url(#XMLID_159_)" width="26" height="58"/>
<linearGradient id="XMLID_160_" gradientUnits="userSpaceOnUse" x1="140.5" y1="594.2371" x2="140.5" y2="718.8943">
	<stop  offset="0" style="stop-color:#5E307F"/>
	<stop  offset="1" style="stop-color:#7F5CCC"/>
</linearGradient>
<rect id="XMLID_110_" x="35" y="594" fill="url(#XMLID_160_)" width="211" height="126"/>
<linearGradient id="XMLID_161_" gradientUnits="userSpaceOnUse" x1="140.5" y1="604.5666" x2="140.5" y2="560.6588">
	<stop  offset="0" style="stop-color:#5E307F"/>
	<stop  offset="1" style="stop-color:#7F5CCC"/>
</linearGradient>
<rect id="XMLID_109_" x="30" y="578" fill="url(#XMLID_161_)" width="221" height="18"/>
<linearGradient id="XMLID_162_" gradientUnits="userSpaceOnUse" x1="140.5" y1="727.6147" x2="140.5" y2="688.5856">
	<stop  offset="0" style="stop-color:#5E307F"/>
	<stop  offset="1" style="stop-color:#7F5CCC"/>
</linearGradient>
<rect id="XMLID_108_" x="30" y="704" fill="url(#XMLID_162_)" width="221" height="16"/>
<linearGradient id="XMLID_163_" gradientUnits="userSpaceOnUse" x1="77" y1="705.6035" x2="77" y2="564.1227">
	<stop  offset="0.8418" style="stop-color:#553665"/>
	<stop  offset="1" style="stop-color:#683BC4"/>
</linearGradient>
<rect id="XMLID_107_" x="64" y="620" fill="url(#XMLID_163_)" width="26" height="58"/>
<linearGradient id="XMLID_164_" gradientUnits="userSpaceOnUse" x1="140.5" y1="705.6035" x2="140.5" y2="564.1227">
	<stop  offset="0" style="stop-color:#FFB842"/>
	<stop  offset="1" style="stop-color:#FFFFBE"/>
</linearGradient>
<rect id="XMLID_106_" x="127" y="620" fill="url(#XMLID_164_)" width="27" height="58"/>
<linearGradient id="XMLID_165_" gradientUnits="userSpaceOnUse" x1="204" y1="705.6035" x2="204" y2="564.1227">
	<stop  offset="0.8418" style="stop-color:#553665"/>
	<stop  offset="1" style="stop-color:#683BC4"/>
</linearGradient>
<rect id="XMLID_105_" x="191" y="620" fill="url(#XMLID_165_)" width="26" height="58"/>
<linearGradient id="XMLID_166_" gradientUnits="userSpaceOnUse" x1="2.5" y1="592.9916" x2="2.5" y2="516.1528" gradientTransform="matrix(-1 0 0 1 191 0)">
	<stop  offset="0" style="stop-color:#5E307F"/>
	<stop  offset="1" style="stop-color:#7F5CCC"/>
</linearGradient>
<polygon id="XMLID_101_" fill="url(#XMLID_166_)" points="157,546.5 220,562.3 220,578 157,578 "/>
<linearGradient id="XMLID_167_" gradientUnits="userSpaceOnUse" x1="341" y1="846.4368" x2="341" y2="198.3893">
	<stop  offset="0" style="stop-color:#5E307F"/>
	<stop  offset="1" style="stop-color:#7F5CCC"/>
</linearGradient>
<polygon id="XMLID_66_" fill="url(#XMLID_167_)" points="341,454.3 246,499 246,720 436,720 436,499 "/>
<linearGradient id="XMLID_168_" gradientUnits="userSpaceOnUse" x1="391.8333" y1="530.6035" x2="391.8333" y2="389.1227">
	<stop  offset="0" style="stop-color:#5E307F"/>
	<stop  offset="1" style="stop-color:#7F5CCC"/>
</linearGradient>
<polygon id="XMLID_63_" fill="url(#XMLID_168_)" points="442.7,493.6 341,445 341,454.4 442.7,503 "/>
<linearGradient id="XMLID_169_" gradientUnits="userSpaceOnUse" x1="493.5" y1="530.6035" x2="493.5" y2="389.1227" gradientTransform="matrix(-1 0 0 1 783.6667 0)">
	<stop  offset="0" style="stop-color:#5E307F"/>
	<stop  offset="1" style="stop-color:#7F5CCC"/>
</linearGradient>
<polygon id="XMLID_64_" fill="url(#XMLID_169_)" points="239.3,493.6 341,445 341,454.4 239.3,503 "/>
<linearGradient id="XMLID_170_" gradientUnits="userSpaceOnUse" x1="341" y1="594.8074" x2="341" y2="575.2928">
	<stop  offset="0" style="stop-color:#5E307F"/>
	<stop  offset="1" style="stop-color:#7F5CCC"/>
</linearGradient>
<rect id="XMLID_71_" x="239" y="583" fill="url(#XMLID_170_)" width="204" height="8"/>
<linearGradient id="XMLID_192_" gradientUnits="userSpaceOnUse" x1="341" y1="612.1559" x2="341" y2="442.2163">
	<stop  offset="0.8418" style="stop-color:#553665"/>
	<stop  offset="1" style="stop-color:#683BC4"/>
</linearGradient>
<path id="XMLID_80_" fill="url(#XMLID_192_)" d="M354,579h-26v-65.2c0-2.5,2-4.5,4.5-4.5h17c2.5,0,4.5,2,4.5,4.5V579z"/>
<linearGradient id="XMLID_201_" gradientUnits="userSpaceOnUse" x1="341" y1="602.5808" x2="341" y2="543.2239">
	<stop  offset="0" style="stop-color:#5E307F"/>
	<stop  offset="1" style="stop-color:#7F5CCC"/>
</linearGradient>
<rect id="XMLID_65_" x="290.2" y="566.7" fill="url(#XMLID_201_)" width="101.7" height="24.3"/>
<linearGradient id="XMLID_202_" gradientUnits="userSpaceOnUse" x1="341" y1="551.4438" x2="341" y2="545.7521" gradientTransform="matrix(-1 0 0 -1 682 1098.3334)">
	<stop  offset="0" style="stop-color:#5E307F"/>
	<stop  offset="0.3724" style="stop-color:#7F5CCC"/>
</linearGradient>
<rect id="XMLID_72_" x="290.2" y="548" fill="url(#XMLID_202_)" width="101.7" height="2.3"/>
<linearGradient id="XMLID_203_" gradientUnits="userSpaceOnUse" x1="290.9583" y1="574.4401" x2="290.9583" y2="534.5978">
	<stop  offset="0" style="stop-color:#5E307F"/>
	<stop  offset="0.3724" style="stop-color:#7F5CCC"/>
</linearGradient>
<rect id="XMLID_73_" x="290.2" y="550.3" fill="url(#XMLID_203_)" width="1.6" height="16.3"/>
<linearGradient id="XMLID_204_" gradientUnits="userSpaceOnUse" x1="310.7917" y1="574.4401" x2="310.7917" y2="534.5978">
	<stop  offset="0" style="stop-color:#5E307F"/>
	<stop  offset="0.3724" style="stop-color:#7F5CCC"/>
</linearGradient>
<rect id="XMLID_76_" x="310" y="550.3" fill="url(#XMLID_204_)" width="1.6" height="16.3"/>
<linearGradient id="XMLID_205_" gradientUnits="userSpaceOnUse" x1="330.625" y1="574.4401" x2="330.625" y2="534.5978">
	<stop  offset="0" style="stop-color:#5E307F"/>
	<stop  offset="0.3724" style="stop-color:#7F5CCC"/>
</linearGradient>
<rect id="XMLID_77_" x="329.8" y="550.3" fill="url(#XMLID_205_)" width="1.6" height="16.3"/>
<linearGradient id="XMLID_206_" gradientUnits="userSpaceOnUse" x1="351.4583" y1="574.4401" x2="351.4583" y2="534.5978">
	<stop  offset="0" style="stop-color:#5E307F"/>
	<stop  offset="0.3724" style="stop-color:#7F5CCC"/>
</linearGradient>
<rect id="XMLID_78_" x="350.7" y="550.3" fill="url(#XMLID_206_)" width="1.6" height="16.3"/>
<linearGradient id="XMLID_207_" gradientUnits="userSpaceOnUse" x1="370.2917" y1="574.4401" x2="370.2917" y2="534.5978">
	<stop  offset="0" style="stop-color:#5E307F"/>
	<stop  offset="0.3724" style="stop-color:#7F5CCC"/>
</linearGradient>
<rect id="XMLID_79_" x="369.5" y="550.3" fill="url(#XMLID_207_)" width="1.6" height="16.3"/>
<linearGradient id="XMLID_208_" gradientUnits="userSpaceOnUse" x1="391.0417" y1="574.4401" x2="391.0417" y2="534.5978">
	<stop  offset="0" style="stop-color:#5E307F"/>
	<stop  offset="0.3724" style="stop-color:#7F5CCC"/>
</linearGradient>
<rect id="XMLID_75_" x="390.3" y="550.3" fill="url(#XMLID_208_)" width="1.6" height="16.3"/>
<linearGradient id="XMLID_209_" gradientUnits="userSpaceOnUse" x1="392" y1="563.6091" x2="392" y2="473.3541">
	<stop  offset="0.8418" style="stop-color:#553665"/>
	<stop  offset="1" style="stop-color:#683BC4"/>
</linearGradient>
<rect id="XMLID_81_" x="379" y="509" fill="url(#XMLID_209_)" width="26" height="37"/>
<linearGradient id="XMLID_210_" gradientUnits="userSpaceOnUse" x1="290" y1="563.6091" x2="290" y2="473.3541">
	<stop  offset="0" style="stop-color:#FFB842"/>
	<stop  offset="1" style="stop-color:#FFFFBE"/>
</linearGradient>
<rect id="XMLID_82_" x="277" y="509" fill="url(#XMLID_210_)" width="26" height="37"/>
<linearGradient id="XMLID_211_" gradientUnits="userSpaceOnUse" x1="341" y1="695.8074" x2="341" y2="676.2928">
	<stop  offset="0" style="stop-color:#5E307F"/>
	<stop  offset="1" style="stop-color:#7F5CCC"/>
</linearGradient>
<rect id="XMLID_94_" x="239" y="684" fill="url(#XMLID_211_)" width="204" height="8"/>
<linearGradient id="XMLID_212_" gradientUnits="userSpaceOnUse" x1="341" y1="713.1559" x2="341" y2="543.2163">
	<stop  offset="0.8418" style="stop-color:#553665"/>
	<stop  offset="1" style="stop-color:#683BC4"/>
</linearGradient>
<path id="XMLID_93_" fill="url(#XMLID_212_)" d="M354,680h-26v-65.2c0-2.5,2-4.5,4.5-4.5h17c2.5,0,4.5,2,4.5,4.5V680z"/>
<linearGradient id="XMLID_213_" gradientUnits="userSpaceOnUse" x1="341" y1="703.5808" x2="341" y2="644.2239">
	<stop  offset="0" style="stop-color:#5E307F"/>
	<stop  offset="1" style="stop-color:#7F5CCC"/>
</linearGradient>
<rect id="XMLID_92_" x="290.2" y="667.7" fill="url(#XMLID_213_)" width="101.7" height="24.3"/>
<linearGradient id="XMLID_214_" gradientUnits="userSpaceOnUse" x1="341" y1="450.4438" x2="341" y2="444.7521" gradientTransform="matrix(-1 0 0 -1 682 1098.3334)">
	<stop  offset="0" style="stop-color:#5E307F"/>
	<stop  offset="0.3724" style="stop-color:#7F5CCC"/>
</linearGradient>
<rect id="XMLID_91_" x="290.2" y="649" fill="url(#XMLID_214_)" width="101.7" height="2.3"/>
<linearGradient id="XMLID_215_" gradientUnits="userSpaceOnUse" x1="290.9583" y1="675.4401" x2="290.9583" y2="635.5978">
	<stop  offset="0" style="stop-color:#5E307F"/>
	<stop  offset="0.3724" style="stop-color:#7F5CCC"/>
</linearGradient>
<rect id="XMLID_90_" x="290.2" y="651.3" fill="url(#XMLID_215_)" width="1.6" height="16.3"/>
<linearGradient id="XMLID_216_" gradientUnits="userSpaceOnUse" x1="310.7917" y1="675.4401" x2="310.7917" y2="635.5978">
	<stop  offset="0" style="stop-color:#5E307F"/>
	<stop  offset="0.3724" style="stop-color:#7F5CCC"/>
</linearGradient>
<rect id="XMLID_89_" x="310" y="651.3" fill="url(#XMLID_216_)" width="1.6" height="16.3"/>
<linearGradient id="XMLID_217_" gradientUnits="userSpaceOnUse" x1="330.625" y1="675.4401" x2="330.625" y2="635.5978">
	<stop  offset="0" style="stop-color:#5E307F"/>
	<stop  offset="0.3724" style="stop-color:#7F5CCC"/>
</linearGradient>
<rect id="XMLID_88_" x="329.8" y="651.3" fill="url(#XMLID_217_)" width="1.6" height="16.3"/>
<linearGradient id="XMLID_218_" gradientUnits="userSpaceOnUse" x1="351.4583" y1="675.4401" x2="351.4583" y2="635.5978">
	<stop  offset="0" style="stop-color:#5E307F"/>
	<stop  offset="0.3724" style="stop-color:#7F5CCC"/>
</linearGradient>
<rect id="XMLID_87_" x="350.7" y="651.3" fill="url(#XMLID_218_)" width="1.6" height="16.3"/>
<linearGradient id="XMLID_219_" gradientUnits="userSpaceOnUse" x1="370.2917" y1="675.4401" x2="370.2917" y2="635.5978">
	<stop  offset="0" style="stop-color:#5E307F"/>
	<stop  offset="0.3724" style="stop-color:#7F5CCC"/>
</linearGradient>
<rect id="XMLID_86_" x="369.5" y="651.3" fill="url(#XMLID_219_)" width="1.6" height="16.3"/>
<linearGradient id="XMLID_220_" gradientUnits="userSpaceOnUse" x1="391.0417" y1="675.4401" x2="391.0417" y2="635.5978">
	<stop  offset="0" style="stop-color:#5E307F"/>
	<stop  offset="0.3724" style="stop-color:#7F5CCC"/>
</linearGradient>
<rect id="XMLID_85_" x="390.3" y="651.3" fill="url(#XMLID_220_)" width="1.6" height="16.3"/>
<linearGradient id="XMLID_221_" gradientUnits="userSpaceOnUse" x1="392" y1="664.6091" x2="392" y2="574.3541">
	<stop  offset="0.8418" style="stop-color:#553665"/>
	<stop  offset="1" style="stop-color:#683BC4"/>
</linearGradient>
<rect id="XMLID_84_" x="379" y="610" fill="url(#XMLID_221_)" width="26" height="37"/>
<linearGradient id="XMLID_222_" gradientUnits="userSpaceOnUse" x1="290" y1="664.6091" x2="290" y2="574.3541">
	<stop  offset="0.8418" style="stop-color:#553665"/>
	<stop  offset="1" style="stop-color:#683BC4"/>
</linearGradient>
<rect id="XMLID_83_" x="277" y="610" fill="url(#XMLID_222_)" width="26" height="37"/>
<linearGradient id="XMLID_223_" gradientUnits="userSpaceOnUse" x1="988" y1="540.3881" x2="988" y2="394.8861">
	<stop  offset="0" style="stop-color:#5E307F"/>
	<stop  offset="1" style="stop-color:#7F5CCC"/>
</linearGradient>
<rect id="XMLID_74_" x="985.7" y="452.4" fill="url(#XMLID_223_)" width="4.7" height="59.6"/>
<linearGradient id="XMLID_224_" gradientUnits="userSpaceOnUse" x1="1035.8334" y1="540.3881" x2="1035.8334" y2="394.8861">
	<stop  offset="0" style="stop-color:#5E307F"/>
	<stop  offset="1" style="stop-color:#7F5CCC"/>
</linearGradient>
<rect id="XMLID_119_" x="1033.5" y="452.4" fill="url(#XMLID_224_)" width="4.7" height="59.6"/>
<linearGradient id="XMLID_225_" gradientUnits="userSpaceOnUse" x1="1083.6666" y1="540.3881" x2="1083.6666" y2="394.8861">
	<stop  offset="0" style="stop-color:#5E307F"/>
	<stop  offset="1" style="stop-color:#7F5CCC"/>
</linearGradient>
<rect id="XMLID_120_" x="1081.3" y="452.4" fill="url(#XMLID_225_)" width="4.7" height="59.6"/>
<linearGradient id="XMLID_226_" gradientUnits="userSpaceOnUse" x1="1131.5" y1="540.3881" x2="1131.5" y2="394.8861">
	<stop  offset="0" style="stop-color:#5E307F"/>
	<stop  offset="1" style="stop-color:#7F5CCC"/>
</linearGradient>
<rect id="XMLID_121_" x="1129.2" y="452.4" fill="url(#XMLID_226_)" width="4.7" height="59.6"/>
<linearGradient id="XMLID_227_" gradientUnits="userSpaceOnUse" x1="1179.3334" y1="540.3881" x2="1179.3334" y2="394.8861">
	<stop  offset="0" style="stop-color:#5E307F"/>
	<stop  offset="1" style="stop-color:#7F5CCC"/>
</linearGradient>
<rect id="XMLID_122_" x="1177" y="452.4" fill="url(#XMLID_227_)" width="4.7" height="59.6"/>
<linearGradient id="XMLID_228_" gradientUnits="userSpaceOnUse" x1="1083.5" y1="521.0425" x2="1083.5" y2="474.6953">
	<stop  offset="0" style="stop-color:#5E307F"/>
	<stop  offset="1" style="stop-color:#7F5CCC"/>
</linearGradient>
<rect id="XMLID_123_" x="978" y="493" fill="url(#XMLID_228_)" width="211" height="19"/>
<linearGradient id="XMLID_229_" gradientUnits="userSpaceOnUse" x1="1083.6666" y1="487.5286" x2="1083.6666" y2="480.5949">
	<stop  offset="0" style="stop-color:#5E307F"/>
	<stop  offset="1" style="stop-color:#7F5CCC"/>
</linearGradient>
<rect id="XMLID_118_" x="985.7" y="483.3" fill="url(#XMLID_229_)" width="196" height="2.8"/>
<linearGradient id="XMLID_230_" gradientUnits="userSpaceOnUse" x1="998.8333" y1="496.2478" x2="998.8333" y2="479.6013">
	<stop  offset="0" style="stop-color:#5E307F"/>
	<stop  offset="1" style="stop-color:#7F5CCC"/>
</linearGradient>
<rect id="XMLID_124_" x="997.8" y="486.2" fill="url(#XMLID_230_)" width="2" height="6.8"/>
<linearGradient id="XMLID_231_" gradientUnits="userSpaceOnUse" x1="1007.5" y1="496.2478" x2="1007.5" y2="479.6013">
	<stop  offset="0" style="stop-color:#5E307F"/>
	<stop  offset="1" style="stop-color:#7F5CCC"/>
</linearGradient>
<rect id="XMLID_126_" x="1006.5" y="486.2" fill="url(#XMLID_231_)" width="2" height="6.8"/>
<linearGradient id="XMLID_232_" gradientUnits="userSpaceOnUse" x1="1016.1667" y1="496.2478" x2="1016.1667" y2="479.6013">
	<stop  offset="0" style="stop-color:#5E307F"/>
	<stop  offset="1" style="stop-color:#7F5CCC"/>
</linearGradient>
<rect id="XMLID_127_" x="1015.2" y="486.2" fill="url(#XMLID_232_)" width="2" height="6.8"/>
<linearGradient id="XMLID_233_" gradientUnits="userSpaceOnUse" x1="1024.8334" y1="496.2478" x2="1024.8334" y2="479.6013">
	<stop  offset="0" style="stop-color:#5E307F"/>
	<stop  offset="1" style="stop-color:#7F5CCC"/>
</linearGradient>
<rect id="XMLID_128_" x="1023.8" y="486.2" fill="url(#XMLID_233_)" width="2" height="6.8"/>
<linearGradient id="XMLID_234_" gradientUnits="userSpaceOnUse" x1="1046.5" y1="496.2478" x2="1046.5" y2="479.6013">
	<stop  offset="0" style="stop-color:#5E307F"/>
	<stop  offset="1" style="stop-color:#7F5CCC"/>
</linearGradient>
<rect id="XMLID_133_" x="1045.5" y="486.2" fill="url(#XMLID_234_)" width="2" height="6.8"/>
<linearGradient id="XMLID_235_" gradientUnits="userSpaceOnUse" x1="1055.1666" y1="496.2478" x2="1055.1666" y2="479.6013">
	<stop  offset="0" style="stop-color:#5E307F"/>
	<stop  offset="1" style="stop-color:#7F5CCC"/>
</linearGradient>
<rect id="XMLID_132_" x="1054.2" y="486.2" fill="url(#XMLID_235_)" width="2" height="6.8"/>
<linearGradient id="XMLID_236_" gradientUnits="userSpaceOnUse" x1="1063.8334" y1="496.2478" x2="1063.8334" y2="479.6013">
	<stop  offset="0" style="stop-color:#5E307F"/>
	<stop  offset="1" style="stop-color:#7F5CCC"/>
</linearGradient>
<rect id="XMLID_131_" x="1062.8" y="486.2" fill="url(#XMLID_236_)" width="2" height="6.8"/>
<linearGradient id="XMLID_237_" gradientUnits="userSpaceOnUse" x1="1072.5" y1="496.2478" x2="1072.5" y2="479.6013">
	<stop  offset="0" style="stop-color:#5E307F"/>
	<stop  offset="1" style="stop-color:#7F5CCC"/>
</linearGradient>
<rect id="XMLID_129_" x="1071.5" y="486.2" fill="url(#XMLID_237_)" width="2" height="6.8"/>
<linearGradient id="XMLID_238_" gradientUnits="userSpaceOnUse" x1="1094.1666" y1="496.2478" x2="1094.1666" y2="479.6013">
	<stop  offset="0" style="stop-color:#5E307F"/>
	<stop  offset="1" style="stop-color:#7F5CCC"/>
</linearGradient>
<rect id="XMLID_140_" x="1093.2" y="486.2" fill="url(#XMLID_238_)" width="2" height="6.8"/>
<linearGradient id="XMLID_239_" gradientUnits="userSpaceOnUse" x1="1102.8334" y1="496.2478" x2="1102.8334" y2="479.6013">
	<stop  offset="0" style="stop-color:#5E307F"/>
	<stop  offset="1" style="stop-color:#7F5CCC"/>
</linearGradient>
<rect id="XMLID_139_" x="1101.8" y="486.2" fill="url(#XMLID_239_)" width="2" height="6.8"/>
<linearGradient id="XMLID_240_" gradientUnits="userSpaceOnUse" x1="1111.5" y1="496.2478" x2="1111.5" y2="479.6013">
	<stop  offset="0" style="stop-color:#5E307F"/>
	<stop  offset="1" style="stop-color:#7F5CCC"/>
</linearGradient>
<rect id="XMLID_138_" x="1110.5" y="486.2" fill="url(#XMLID_240_)" width="2" height="6.8"/>
<linearGradient id="XMLID_241_" gradientUnits="userSpaceOnUse" x1="1120.1666" y1="496.2478" x2="1120.1666" y2="479.6013">
	<stop  offset="0" style="stop-color:#5E307F"/>
	<stop  offset="1" style="stop-color:#7F5CCC"/>
</linearGradient>
<rect id="XMLID_137_" x="1119.2" y="486.2" fill="url(#XMLID_241_)" width="2" height="6.8"/>
<linearGradient id="XMLID_242_" gradientUnits="userSpaceOnUse" x1="1142.3334" y1="496.2478" x2="1142.3334" y2="479.6013">
	<stop  offset="0" style="stop-color:#5E307F"/>
	<stop  offset="1" style="stop-color:#7F5CCC"/>
</linearGradient>
<rect id="XMLID_144_" x="1141.3" y="486.2" fill="url(#XMLID_242_)" width="2" height="6.8"/>
<linearGradient id="XMLID_243_" gradientUnits="userSpaceOnUse" x1="1151" y1="496.2478" x2="1151" y2="479.6013">
	<stop  offset="0" style="stop-color:#5E307F"/>
	<stop  offset="1" style="stop-color:#7F5CCC"/>
</linearGradient>
<rect id="XMLID_143_" x="1150" y="486.2" fill="url(#XMLID_243_)" width="2" height="6.8"/>
<linearGradient id="XMLID_244_" gradientUnits="userSpaceOnUse" x1="1159.6666" y1="496.2478" x2="1159.6666" y2="479.6013">
	<stop  offset="0" style="stop-color:#5E307F"/>
	<stop  offset="1" style="stop-color:#7F5CCC"/>
</linearGradient>
<rect id="XMLID_142_" x="1158.7" y="486.2" fill="url(#XMLID_244_)" width="2" height="6.8"/>
<linearGradient id="XMLID_245_" gradientUnits="userSpaceOnUse" x1="1168.3334" y1="496.2478" x2="1168.3334" y2="479.6013">
	<stop  offset="0" style="stop-color:#5E307F"/>
	<stop  offset="1" style="stop-color:#7F5CCC"/>
</linearGradient>
<rect id="XMLID_141_" x="1167.3" y="486.2" fill="url(#XMLID_245_)" width="2" height="6.8"/>
<linearGradient id="XMLID_246_" gradientUnits="userSpaceOnUse" x1="1591.375" y1="500.1775" x2="1591.375" y2="412.135">
	<stop  offset="0" style="stop-color:#5E307F"/>
	<stop  offset="1" style="stop-color:#7F5CCC"/>
</linearGradient>
<polygon id="XMLID_111_" fill="url(#XMLID_246_)" points="1594.8,446.9 1591.8,446.9 1588,483 1591,483 "/>
<linearGradient id="XMLID_247_" gradientUnits="userSpaceOnUse" x1="1657.75" y1="501.8578" x2="1657.75" y2="405.2026">
	<stop  offset="0" style="stop-color:#5E307F"/>
	<stop  offset="1" style="stop-color:#7F5CCC"/>
</linearGradient>
<polygon id="XMLID_171_" fill="url(#XMLID_247_)" points="1658,443.4 1655,443.4 1657.5,483 1660.5,483 "/>
<linearGradient id="XMLID_248_" gradientUnits="userSpaceOnUse" x1="1623" y1="477" x2="1623" y2="459.6243">
	<stop  offset="0" style="stop-color:#5E307F"/>
	<stop  offset="1" style="stop-color:#7F5CCC"/>
</linearGradient>
<path id="XMLID_175_" fill="url(#XMLID_248_)" d="M1629,460v17h-6v-10c0,0,0.2,10-1.5,10s-1.5,0-1.5,0h-3c0,0,1.8-12.4,2.4-17.2
	C1619.4,459.8,1624,459.3,1629,460z"/>
<linearGradient id="XMLID_249_" gradientUnits="userSpaceOnUse" x1="1632.1666" y1="463.3828" x2="1632.1666" y2="459">
	<stop  offset="0" style="stop-color:#5E307F"/>
	<stop  offset="1" style="stop-color:#7F5CCC"/>
</linearGradient>
<path id="XMLID_114_" fill="url(#XMLID_249_)" d="M1632,460v2c0,0-0.1,1.1-0.7,1.2c0,0,1,0.4,1.3,0c0.3-0.4,0.3-0.4,0.3-0.4V459
	l-1.1,0.4L1632,460z"/>
<linearGradient id="XMLID_250_" gradientUnits="userSpaceOnUse" x1="1634.1666" y1="463.3828" x2="1634.1666" y2="459">
	<stop  offset="0" style="stop-color:#5E307F"/>
	<stop  offset="1" style="stop-color:#7F5CCC"/>
</linearGradient>
<path id="XMLID_177_" fill="url(#XMLID_250_)" d="M1634,460v2c0,0-0.1,1.1-0.7,1.2c0,0,1,0.4,1.3,0c0.3-0.4,0.3-0.4,0.3-0.4V459
	l-1.1,0.4L1634,460z"/>
<linearGradient id="XMLID_251_" gradientUnits="userSpaceOnUse" x1="1729.375" y1="499.2439" x2="1729.375" y2="415.9864">
	<stop  offset="0" style="stop-color:#5E307F"/>
	<stop  offset="1" style="stop-color:#7F5CCC"/>
</linearGradient>
<polygon id="XMLID_172_" fill="url(#XMLID_251_)" points="1731.8,448.9 1728.8,448.9 1727,483 1730,483 "/>
<linearGradient id="XMLID_252_" gradientUnits="userSpaceOnUse" x1="1624.813" y1="460.0704" x2="1624.813" y2="454.5531">
	<stop  offset="0" style="stop-color:#5E307F"/>
	<stop  offset="1" style="stop-color:#7F5CCC"/>
</linearGradient>
<path id="XMLID_173_" fill="none" stroke="url(#XMLID_252_)" stroke-miterlimit="10" d="M1593.9,455c0,0,29.2,10.2,61.8,0"/>
<linearGradient id="XMLID_253_" gradientUnits="userSpaceOnUse" x1="1693.3182" y1="461.7817" x2="1693.3182" y2="454.5781">
	<stop  offset="0" style="stop-color:#5E307F"/>
	<stop  offset="1" style="stop-color:#7F5CCC"/>
</linearGradient>
<path id="XMLID_174_" fill="none" stroke="url(#XMLID_253_)" stroke-miterlimit="10" d="M1658.7,455c0,0,26.3,12.4,69.3,2.3"/>
<linearGradient id="XMLID_254_" gradientUnits="userSpaceOnUse" x1="1812.5" y1="700.129" x2="1812.5" y2="591.8331">
	<stop  offset="0" style="stop-color:#5E307F"/>
	<stop  offset="1" style="stop-color:#7F5CCC"/>
</linearGradient>
<rect id="XMLID_176_" x="1777" y="634.6" fill="url(#XMLID_254_)" width="71" height="44.4"/>
<linearGradient id="XMLID_255_" gradientUnits="userSpaceOnUse" x1="1854.6666" y1="637.7472" x2="1854.6666" y2="621.6376">
	<stop  offset="0" style="stop-color:#5E307F"/>
	<stop  offset="1" style="stop-color:#7F5CCC"/>
</linearGradient>
<rect id="XMLID_183_" x="1771.3" y="628" fill="url(#XMLID_255_)" width="166.7" height="6.6"/>
<linearGradient id="XMLID_256_" gradientUnits="userSpaceOnUse" x1="1931.3334" y1="700.129" x2="1931.3334" y2="591.8331">
	<stop  offset="0" style="stop-color:#5E307F"/>
	<stop  offset="1" style="stop-color:#7F5CCC"/>
</linearGradient>
<rect id="XMLID_184_" x="1929.7" y="634.6" fill="url(#XMLID_256_)" width="3.3" height="44.4"/>
<linearGradient id="XMLID_257_" gradientUnits="userSpaceOnUse" x1="1493.5" y1="818.9919" x2="1493.5" y2="311.6123">
	<stop  offset="0" style="stop-color:#5E307F"/>
	<stop  offset="1" style="stop-color:#7F5CCC"/>
</linearGradient>
<rect id="XMLID_185_" x="1441" y="512" fill="url(#XMLID_257_)" width="105" height="208"/>
<linearGradient id="XMLID_258_" gradientUnits="userSpaceOnUse" x1="1491.5" y1="516.5212" x2="1491.5" y2="493.3477">
	<stop  offset="0" style="stop-color:#5E307F"/>
	<stop  offset="1" style="stop-color:#7F5CCC"/>
</linearGradient>
<rect id="XMLID_186_" x="1437" y="502.5" fill="url(#XMLID_258_)" width="109" height="9.5"/>
<linearGradient id="XMLID_259_" gradientUnits="userSpaceOnUse" x1="1477.25" y1="633.425" x2="1477.25" y2="600.4941">
	<stop  offset="0" style="stop-color:#5E307F"/>
	<stop  offset="1" style="stop-color:#7F5CCC"/>
</linearGradient>
<rect id="XMLID_187_" x="1408.5" y="613.5" fill="url(#XMLID_259_)" width="137.5" height="13.5"/>
<linearGradient id="XMLID_260_" gradientUnits="userSpaceOnUse" x1="1514.75" y1="536.8074" x2="1514.75" y2="517.2928">
	<stop  offset="0.8418" style="stop-color:#553665"/>
	<stop  offset="1" style="stop-color:#683BC4"/>
</linearGradient>
<rect id="XMLID_188_" x="1499.5" y="525" fill="url(#XMLID_260_)" width="30.5" height="8"/>
<linearGradient id="XMLID_261_" gradientUnits="userSpaceOnUse" x1="1514.75" y1="652.8074" x2="1514.75" y2="633.2928">
	<stop  offset="0" style="stop-color:#FFB842"/>
	<stop  offset="1" style="stop-color:#FFFFBE"/>
</linearGradient>
<rect id="XMLID_190_" x="1499.5" y="641" fill="url(#XMLID_261_)" width="30.5" height="8"/>
<linearGradient id="XMLID_262_" gradientUnits="userSpaceOnUse" x1="1424.75" y1="590.1105" x2="1424.75" y2="584.4187">
	<stop  offset="0" style="stop-color:#5E307F"/>
	<stop  offset="1" style="stop-color:#7F5CCC"/>
</linearGradient>
<rect id="XMLID_189_" x="1408.5" y="586.7" fill="url(#XMLID_262_)" width="32.5" height="2.3"/>
<linearGradient id="XMLID_263_" gradientUnits="userSpaceOnUse" x1="1409.6666" y1="625.1601" x2="1409.6666" y2="565.3967">
	<stop  offset="0" style="stop-color:#5E307F"/>
	<stop  offset="1" style="stop-color:#7F5CCC"/>
</linearGradient>
<rect id="XMLID_191_" x="1408.5" y="589" fill="url(#XMLID_263_)" width="2.3" height="24.5"/>
<linearGradient id="XMLID_264_" gradientUnits="userSpaceOnUse" x1="1418.6041" y1="625.1601" x2="1418.6041" y2="565.3967">
	<stop  offset="0" style="stop-color:#5E307F"/>
	<stop  offset="1" style="stop-color:#7F5CCC"/>
</linearGradient>
<rect id="XMLID_193_" x="1417.4" y="589" fill="url(#XMLID_264_)" width="2.3" height="24.5"/>
<linearGradient id="XMLID_265_" gradientUnits="userSpaceOnUse" x1="1428.5416" y1="625.1601" x2="1428.5416" y2="565.3967">
	<stop  offset="0" style="stop-color:#5E307F"/>
	<stop  offset="1" style="stop-color:#7F5CCC"/>
</linearGradient>
<rect id="XMLID_194_" x="1427.4" y="589" fill="url(#XMLID_265_)" width="2.3" height="24.5"/>
<linearGradient id="XMLID_266_" gradientUnits="userSpaceOnUse" x1="1437.4791" y1="625.1601" x2="1437.4791" y2="565.3967">
	<stop  offset="0" style="stop-color:#5E307F"/>
	<stop  offset="1" style="stop-color:#7F5CCC"/>
</linearGradient>
<rect id="XMLID_195_" x="1436.3" y="589" fill="url(#XMLID_266_)" width="2.3" height="24.5"/>
<linearGradient id="XMLID_267_" gradientUnits="userSpaceOnUse" x1="1424.75" y1="696.6105" x2="1424.75" y2="690.9187">
	<stop  offset="0" style="stop-color:#5E307F"/>
	<stop  offset="1" style="stop-color:#7F5CCC"/>
</linearGradient>
<rect id="XMLID_200_" x="1408.5" y="693.2" fill="url(#XMLID_267_)" width="32.5" height="2.3"/>
<linearGradient id="XMLID_268_" gradientUnits="userSpaceOnUse" x1="1409.6666" y1="731.6601" x2="1409.6666" y2="671.8967">
	<stop  offset="0" style="stop-color:#5E307F"/>
	<stop  offset="1" style="stop-color:#7F5CCC"/>
</linearGradient>
<rect id="XMLID_199_" x="1408.5" y="695.5" fill="url(#XMLID_268_)" width="2.3" height="24.5"/>
<linearGradient id="XMLID_269_" gradientUnits="userSpaceOnUse" x1="1418.6041" y1="731.6601" x2="1418.6041" y2="671.8967">
	<stop  offset="0" style="stop-color:#5E307F"/>
	<stop  offset="1" style="stop-color:#7F5CCC"/>
</linearGradient>
<rect id="XMLID_198_" x="1417.4" y="695.5" fill="url(#XMLID_269_)" width="2.3" height="24.5"/>
<linearGradient id="XMLID_270_" gradientUnits="userSpaceOnUse" x1="1428.5416" y1="731.6601" x2="1428.5416" y2="671.8967">
	<stop  offset="0" style="stop-color:#5E307F"/>
	<stop  offset="1" style="stop-color:#7F5CCC"/>
</linearGradient>
<rect id="XMLID_197_" x="1427.4" y="695.5" fill="url(#XMLID_270_)" width="2.3" height="24.5"/>
<linearGradient id="XMLID_271_" gradientUnits="userSpaceOnUse" x1="1437.4791" y1="731.6601" x2="1437.4791" y2="671.8967">
	<stop  offset="0" style="stop-color:#5E307F"/>
	<stop  offset="1" style="stop-color:#7F5CCC"/>
</linearGradient>
<rect id="XMLID_196_" x="1436.3" y="695.5" fill="url(#XMLID_271_)" width="2.3" height="24.5"/>
</svg>
