<?xml version="1.0" encoding="utf-8"?>
<svg version="1.1" id="b4" xmlns="http://www.w3.org/2000/svg" xmlns:xlink="http://www.w3.org/1999/xlink" x="0px" y="0px"
	 viewBox="0 0 2048 720" enable-background="new 0 0 2048 720" xml:space="preserve">
<linearGradient id="XMLID_2_" gradientUnits="userSpaceOnUse" x1="1302" y1="862.3009" x2="1302" y2="132.9426">
	<stop  offset="0" style="stop-color:#893DA0"/>
	<stop  offset="1" style="stop-color:#9457D9"/>
</linearGradient>
<rect id="XMLID_192_" x="1237" y="421" fill="url(#XMLID_2_)" width="130" height="299"/>
<rect id="XMLID_201_" x="1252" y="435.2" fill="#634C72" width="14" height="24.3"/>
<rect id="XMLID_203_" x="1280.7" y="435.2" fill="#634C72" width="14" height="24.3"/>
<rect id="XMLID_204_" x="1309.3" y="435.2" fill="#634C72" width="14" height="24.3"/>
<linearGradient id="XMLID_3_" gradientUnits="userSpaceOnUse" x1="1345" y1="459.5252" x2="1345" y2="435.2249">
	<stop  offset="0" style="stop-color:#E0CC84"/>
	<stop  offset="3.571429e-002" style="stop-color:#FFBCA4"/>
	<stop  offset="1" style="stop-color:#FFACBE"/>
</linearGradient>
<rect id="XMLID_205_" x="1338" y="435.2" fill="url(#XMLID_3_)" width="14" height="24.3"/>
<rect id="XMLID_209_" x="1252" y="474" fill="#634C72" width="14" height="24.3"/>
<linearGradient id="XMLID_4_" gradientUnits="userSpaceOnUse" x1="1287.6666" y1="498.3259" x2="1287.6666" y2="474.0256">
	<stop  offset="0" style="stop-color:#E0CC84"/>
	<stop  offset="3.571429e-002" style="stop-color:#FFBCA4"/>
	<stop  offset="1" style="stop-color:#FFACBE"/>
</linearGradient>
<rect id="XMLID_208_" x="1280.7" y="474" fill="url(#XMLID_4_)" width="14" height="24.3"/>
<rect id="XMLID_207_" x="1309.3" y="474" fill="#634C72" width="14" height="24.3"/>
<linearGradient id="XMLID_5_" gradientUnits="userSpaceOnUse" x1="1345" y1="498.326" x2="1345" y2="474.0256">
	<stop  offset="0" style="stop-color:#E0CC84"/>
	<stop  offset="3.571429e-002" style="stop-color:#FFBCA4"/>
	<stop  offset="1" style="stop-color:#FFACBE"/>
</linearGradient>
<rect id="XMLID_206_" x="1338" y="474" fill="url(#XMLID_5_)" width="14" height="24.3"/>
<rect id="XMLID_213_" x="1252" y="512.8" fill="#634C72" width="14" height="24.3"/>
<rect id="XMLID_212_" x="1280.7" y="512.8" fill="#634C72" width="14" height="24.3"/>
<rect id="XMLID_211_" x="1309.3" y="512.8" fill="#634C72" width="14" height="24.3"/>
<rect id="XMLID_210_" x="1338" y="512.8" fill="#634C72" width="14" height="24.3"/>
<rect id="XMLID_217_" x="1252" y="551.6" fill="#634C72" width="14" height="24.3"/>
<rect id="XMLID_216_" x="1280.7" y="551.6" fill="#634C72" width="14" height="24.3"/>
<linearGradient id="XMLID_6_" gradientUnits="userSpaceOnUse" x1="1316.3334" y1="575.9275" x2="1316.3334" y2="551.6272">
	<stop  offset="0" style="stop-color:#E0CC84"/>
	<stop  offset="3.571429e-002" style="stop-color:#FFBCA4"/>
	<stop  offset="1" style="stop-color:#FFACBE"/>
</linearGradient>
<rect id="XMLID_215_" x="1309.3" y="551.6" fill="url(#XMLID_6_)" width="14" height="24.3"/>
<rect id="XMLID_214_" x="1338" y="551.6" fill="#634C72" width="14" height="24.3"/>
<rect id="XMLID_221_" x="1252" y="590.4" fill="#634C72" width="14" height="24.3"/>
<rect id="XMLID_220_" x="1280.7" y="590.4" fill="#634C72" width="14" height="24.3"/>
<rect id="XMLID_219_" x="1309.3" y="590.4" fill="#634C72" width="14" height="24.3"/>
<rect id="XMLID_218_" x="1338" y="590.4" fill="#634C72" width="14" height="24.3"/>
<linearGradient id="XMLID_7_" gradientUnits="userSpaceOnUse" x1="1259" y1="653.5291" x2="1259" y2="629.2288">
	<stop  offset="0" style="stop-color:#E0CC84"/>
	<stop  offset="3.571429e-002" style="stop-color:#FFBCA4"/>
	<stop  offset="1" style="stop-color:#FFACBE"/>
</linearGradient>
<rect id="XMLID_225_" x="1252" y="629.2" fill="url(#XMLID_7_)" width="14" height="24.3"/>
<linearGradient id="XMLID_8_" gradientUnits="userSpaceOnUse" x1="1287.6666" y1="653.5291" x2="1287.6666" y2="629.2288">
	<stop  offset="0" style="stop-color:#E0CC84"/>
	<stop  offset="3.571429e-002" style="stop-color:#FFBCA4"/>
	<stop  offset="1" style="stop-color:#FFACBE"/>
</linearGradient>
<rect id="XMLID_224_" x="1280.7" y="629.2" fill="url(#XMLID_8_)" width="14" height="24.3"/>
<rect id="XMLID_223_" x="1309.3" y="629.2" fill="#634C72" width="14" height="24.3"/>
<rect id="XMLID_222_" x="1338" y="629.2" fill="#634C72" width="14" height="24.3"/>
<rect id="XMLID_229_" x="1252" y="668" fill="#634C72" width="14" height="24.3"/>
<rect id="XMLID_228_" x="1280.7" y="668" fill="#634C72" width="14" height="24.3"/>
<rect id="XMLID_227_" x="1309.3" y="668" fill="#634C72" width="14" height="24.3"/>
<linearGradient id="XMLID_9_" gradientUnits="userSpaceOnUse" x1="1345" y1="692.3298" x2="1345" y2="668.0295">
	<stop  offset="0" style="stop-color:#E0CC84"/>
	<stop  offset="3.571429e-002" style="stop-color:#FFBCA4"/>
	<stop  offset="1" style="stop-color:#FFACBE"/>
</linearGradient>
<rect id="XMLID_226_" x="1338" y="668" fill="url(#XMLID_9_)" width="14" height="24.3"/>
<rect id="XMLID_233_" x="1252" y="706.8" fill="#634C72" width="14" height="13.2"/>
<rect id="XMLID_232_" x="1280.7" y="706.8" fill="#634C72" width="14" height="13.2"/>
<rect id="XMLID_231_" x="1309.3" y="706.8" fill="#634C72" width="14" height="13.2"/>
<rect id="XMLID_230_" x="1338" y="706.8" fill="#634C72" width="14" height="13.2"/>
<linearGradient id="XMLID_10_" gradientUnits="userSpaceOnUse" x1="335.7911" y1="862.3009" x2="335.7911" y2="132.9426">
	<stop  offset="0" style="stop-color:#893DA0"/>
	<stop  offset="1" style="stop-color:#9457D9"/>
</linearGradient>
<rect id="XMLID_365_" x="270.8" y="421" fill="url(#XMLID_10_)" width="130" height="299"/>
<linearGradient id="XMLID_11_" gradientUnits="userSpaceOnUse" x1="285.7911" y1="447.375" x2="299.7911" y2="447.375">
	<stop  offset="0" style="stop-color:#E0CC84"/>
	<stop  offset="3.571429e-002" style="stop-color:#FFBCA4"/>
	<stop  offset="1" style="stop-color:#FFACBE"/>
</linearGradient>
<rect id="XMLID_364_" x="285.8" y="435.2" fill="url(#XMLID_11_)" width="14" height="24.3"/>
<rect id="XMLID_363_" x="314.5" y="435.2" fill="#634C72" width="14" height="24.3"/>
<rect id="XMLID_362_" x="343.1" y="435.2" fill="#634C72" width="14" height="24.3"/>
<rect id="XMLID_361_" x="371.8" y="435.2" fill="#634C72" width="14" height="24.3"/>
<rect id="XMLID_360_" x="285.8" y="474" fill="#634C72" width="14" height="24.3"/>
<linearGradient id="XMLID_12_" gradientUnits="userSpaceOnUse" x1="321.4578" y1="498.3259" x2="321.4578" y2="474.0256">
	<stop  offset="0" style="stop-color:#E0CC84"/>
	<stop  offset="3.571429e-002" style="stop-color:#FFBCA4"/>
	<stop  offset="1" style="stop-color:#FFACBE"/>
</linearGradient>
<rect id="XMLID_359_" x="314.5" y="474" fill="url(#XMLID_12_)" width="14" height="24.3"/>
<rect id="XMLID_358_" x="343.1" y="474" fill="#634C72" width="14" height="24.3"/>
<rect id="XMLID_357_" x="371.8" y="474" fill="#634C72" width="14" height="24.3"/>
<rect id="XMLID_356_" x="285.8" y="512.8" fill="#634C72" width="14" height="24.3"/>
<linearGradient id="XMLID_13_" gradientUnits="userSpaceOnUse" x1="314.4578" y1="524.9766" x2="328.4578" y2="524.9766">
	<stop  offset="0" style="stop-color:#E0CC84"/>
	<stop  offset="3.571429e-002" style="stop-color:#FFBCA4"/>
	<stop  offset="1" style="stop-color:#FFACBE"/>
</linearGradient>
<rect id="XMLID_355_" x="314.5" y="512.8" fill="url(#XMLID_13_)" width="14" height="24.3"/>
<rect id="XMLID_354_" x="343.1" y="512.8" fill="#634C72" width="14" height="24.3"/>
<rect id="XMLID_353_" x="371.8" y="512.8" fill="#634C72" width="14" height="24.3"/>
<linearGradient id="XMLID_14_" gradientUnits="userSpaceOnUse" x1="285.7911" y1="563.7773" x2="299.7911" y2="563.7773">
	<stop  offset="0" style="stop-color:#E0CC84"/>
	<stop  offset="3.571429e-002" style="stop-color:#FFBCA4"/>
	<stop  offset="1" style="stop-color:#FFACBE"/>
</linearGradient>
<rect id="XMLID_352_" x="285.8" y="551.6" fill="url(#XMLID_14_)" width="14" height="24.3"/>
<rect id="XMLID_351_" x="314.5" y="551.6" fill="#634C72" width="14" height="24.3"/>
<rect id="XMLID_350_" x="343.1" y="551.6" fill="#634C72" width="14" height="24.3"/>
<linearGradient id="XMLID_15_" gradientUnits="userSpaceOnUse" x1="371.7911" y1="563.7773" x2="385.7911" y2="563.7773">
	<stop  offset="0" style="stop-color:#E0CC84"/>
	<stop  offset="3.571429e-002" style="stop-color:#FFBCA4"/>
	<stop  offset="1" style="stop-color:#FFACBE"/>
</linearGradient>
<rect id="XMLID_349_" x="371.8" y="551.6" fill="url(#XMLID_15_)" width="14" height="24.3"/>
<rect id="XMLID_348_" x="285.8" y="590.4" fill="#634C72" width="14" height="24.3"/>
<rect id="XMLID_347_" x="314.5" y="590.4" fill="#634C72" width="14" height="24.3"/>
<rect id="XMLID_346_" x="343.1" y="590.4" fill="#634C72" width="14" height="24.3"/>
<rect id="XMLID_345_" x="371.8" y="590.4" fill="#634C72" width="14" height="24.3"/>
<rect id="XMLID_344_" x="285.8" y="629.2" fill="#634C72" width="14" height="24.3"/>
<linearGradient id="XMLID_16_" gradientUnits="userSpaceOnUse" x1="321.4578" y1="653.5291" x2="321.4578" y2="629.2288">
	<stop  offset="0" style="stop-color:#E0CC84"/>
	<stop  offset="3.571429e-002" style="stop-color:#FFBCA4"/>
	<stop  offset="1" style="stop-color:#FFACBE"/>
</linearGradient>
<rect id="XMLID_343_" x="314.5" y="629.2" fill="url(#XMLID_16_)" width="14" height="24.3"/>
<rect id="XMLID_342_" x="343.1" y="629.2" fill="#634C72" width="14" height="24.3"/>
<rect id="XMLID_341_" x="371.8" y="629.2" fill="#634C72" width="14" height="24.3"/>
<rect id="XMLID_340_" x="285.8" y="668" fill="#634C72" width="14" height="24.3"/>
<rect id="XMLID_339_" x="314.5" y="668" fill="#634C72" width="14" height="24.3"/>
<rect id="XMLID_338_" x="343.1" y="668" fill="#634C72" width="14" height="24.3"/>
<linearGradient id="XMLID_17_" gradientUnits="userSpaceOnUse" x1="371.7911" y1="680.1797" x2="385.7911" y2="680.1797">
	<stop  offset="0" style="stop-color:#E0CC84"/>
	<stop  offset="3.571429e-002" style="stop-color:#FFBCA4"/>
	<stop  offset="1" style="stop-color:#FFACBE"/>
</linearGradient>
<rect id="XMLID_337_" x="371.8" y="668" fill="url(#XMLID_17_)" width="14" height="24.3"/>
<rect id="XMLID_336_" x="285.8" y="706.8" fill="#634C72" width="14" height="13.2"/>
<rect id="XMLID_335_" x="314.5" y="706.8" fill="#634C72" width="14" height="13.2"/>
<rect id="XMLID_334_" x="343.1" y="706.8" fill="#634C72" width="14" height="13.2"/>
<rect id="XMLID_333_" x="371.8" y="706.8" fill="#634C72" width="14" height="13.2"/>
<linearGradient id="XMLID_18_" gradientUnits="userSpaceOnUse" x1="848.7581" y1="862.3009" x2="848.7581" y2="132.9426">
	<stop  offset="0" style="stop-color:#893DA0"/>
	<stop  offset="1" style="stop-color:#9457D9"/>
</linearGradient>
<rect id="XMLID_297_" x="713" y="421" fill="url(#XMLID_18_)" width="271.5" height="299"/>
<linearGradient id="XMLID_19_" gradientUnits="userSpaceOnUse" x1="1432" y1="841.2517" x2="1432" y2="219.7805">
	<stop  offset="0" style="stop-color:#893DA0"/>
	<stop  offset="1" style="stop-color:#9457D9"/>
</linearGradient>
<rect id="XMLID_266_" x="1367" y="465.2" fill="url(#XMLID_19_)" width="130" height="254.8"/>
<linearGradient id="XMLID_20_" gradientUnits="userSpaceOnUse" x1="1637.5" y1="764.7401" x2="1637.5" y2="535.4266">
	<stop  offset="0" style="stop-color:#893DA0"/>
	<stop  offset="1" style="stop-color:#9457D9"/>
</linearGradient>
<rect id="XMLID_159_" x="1497" y="626" fill="url(#XMLID_20_)" width="281" height="94"/>
<rect id="XMLID_265_" x="1382" y="479.5" fill="#634C72" width="14" height="24.3"/>
<rect id="XMLID_264_" x="1410.7" y="479.5" fill="#634C72" width="14" height="24.3"/>
<rect id="XMLID_263_" x="1439.3" y="479.5" fill="#634C72" width="14" height="24.3"/>
<rect id="XMLID_262_" x="1468" y="479.5" fill="#634C72" width="14" height="24.3"/>
<rect id="XMLID_261_" x="1382" y="518.3" fill="#634C72" width="14" height="24.3"/>
<linearGradient id="XMLID_21_" gradientUnits="userSpaceOnUse" x1="1417.6666" y1="542.5542" x2="1417.6666" y2="518.2539">
	<stop  offset="0" style="stop-color:#E0CC84"/>
	<stop  offset="3.571429e-002" style="stop-color:#FFBCA4"/>
	<stop  offset="1" style="stop-color:#FFACBE"/>
</linearGradient>
<rect id="XMLID_260_" x="1410.7" y="518.3" fill="url(#XMLID_21_)" width="14" height="24.3"/>
<rect id="XMLID_259_" x="1439.3" y="518.3" fill="#634C72" width="14" height="24.3"/>
<rect id="XMLID_258_" x="1468" y="518.3" fill="#634C72" width="14" height="24.3"/>
<rect id="XMLID_257_" x="1382" y="557.1" fill="#634C72" width="14" height="24.3"/>
<rect id="XMLID_256_" x="1410.7" y="557.1" fill="#634C72" width="14" height="24.3"/>
<rect id="XMLID_255_" x="1439.3" y="557.1" fill="#634C72" width="14" height="24.3"/>
<rect id="XMLID_254_" x="1468" y="557.1" fill="#634C72" width="14" height="24.3"/>
<linearGradient id="XMLID_23_" gradientUnits="userSpaceOnUse" x1="1382" y1="608.0056" x2="1396" y2="608.0056">
	<stop  offset="0" style="stop-color:#E0CC84"/>
	<stop  offset="3.571429e-002" style="stop-color:#FFBCA4"/>
	<stop  offset="1" style="stop-color:#FFACBE"/>
</linearGradient>
<rect id="XMLID_253_" x="1382" y="595.9" fill="url(#XMLID_23_)" width="14" height="24.3"/>
<rect id="XMLID_252_" x="1410.7" y="595.9" fill="#634C72" width="14" height="24.3"/>
<linearGradient id="XMLID_25_" gradientUnits="userSpaceOnUse" x1="1439.3334" y1="608.0056" x2="1453.3334" y2="608.0056">
	<stop  offset="0" style="stop-color:#E0CC84"/>
	<stop  offset="3.571429e-002" style="stop-color:#FFBCA4"/>
	<stop  offset="1" style="stop-color:#FFACBE"/>
</linearGradient>
<rect id="XMLID_251_" x="1439.3" y="595.9" fill="url(#XMLID_25_)" width="14" height="24.3"/>
<linearGradient id="XMLID_26_" gradientUnits="userSpaceOnUse" x1="1468" y1="608.0056" x2="1482" y2="608.0056">
	<stop  offset="0" style="stop-color:#E0CC84"/>
	<stop  offset="3.571429e-002" style="stop-color:#FFBCA4"/>
	<stop  offset="1" style="stop-color:#FFACBE"/>
</linearGradient>
<rect id="XMLID_250_" x="1468" y="595.9" fill="url(#XMLID_26_)" width="14" height="24.3"/>
<rect id="XMLID_249_" x="1382" y="634.7" fill="#634C72" width="14" height="24.3"/>
<rect id="XMLID_248_" x="1410.7" y="634.7" fill="#634C72" width="14" height="24.3"/>
<path id="XMLID_160_" fill="#634C72" d="M1531.2,671.1h-7.1c-1.9,0-3.4-1.5-3.4-3.4v-17.4c0-1.9,1.5-3.4,3.4-3.4h7.1
	c1.9,0,3.4,1.5,3.4,3.4v17.4C1534.7,669.6,1533.1,671.1,1531.2,671.1z"/>
<path id="XMLID_161_" fill="#634C72" d="M1562.6,671.1h-7.1c-1.9,0-3.4-1.5-3.4-3.4v-17.4c0-1.9,1.5-3.4,3.4-3.4h7.1
	c1.9,0,3.4,1.5,3.4,3.4v17.4C1566,669.6,1564.5,671.1,1562.6,671.1z"/>
<path id="XMLID_162_" fill="#634C72" d="M1593.9,671.1h-7.1c-1.9,0-3.4-1.5-3.4-3.4v-17.4c0-1.9,1.5-3.4,3.4-3.4h7.1
	c1.9,0,3.4,1.5,3.4,3.4v17.4C1597.3,669.6,1595.8,671.1,1593.9,671.1z"/>
<linearGradient id="XMLID_27_" gradientUnits="userSpaceOnUse" x1="1614.6666" y1="658.9565" x2="1628.6666" y2="658.9565">
	<stop  offset="0" style="stop-color:#E0CC84"/>
	<stop  offset="3.571429e-002" style="stop-color:#FFBCA4"/>
	<stop  offset="1" style="stop-color:#FFACBE"/>
</linearGradient>
<path id="XMLID_163_" fill="url(#XMLID_27_)" d="M1625.2,671.1h-7.1c-1.9,0-3.4-1.5-3.4-3.4v-17.4c0-1.9,1.5-3.4,3.4-3.4h7.1
	c1.9,0,3.4,1.5,3.4,3.4v17.4C1628.7,669.6,1627.1,671.1,1625.2,671.1z"/>
<path id="XMLID_164_" fill="#634C72" d="M1656.6,671.1h-7.1c-1.9,0-3.4-1.5-3.4-3.4v-17.4c0-1.9,1.5-3.4,3.4-3.4h7.1
	c1.9,0,3.4,1.5,3.4,3.4v17.4C1660,669.6,1658.5,671.1,1656.6,671.1z"/>
<path id="XMLID_165_" fill="#634C72" d="M1687.9,671.1h-7.1c-1.9,0-3.4-1.5-3.4-3.4v-17.4c0-1.9,1.5-3.4,3.4-3.4h7.1
	c1.9,0,3.4,1.5,3.4,3.4v17.4C1691.3,669.6,1689.8,671.1,1687.9,671.1z"/>
<linearGradient id="XMLID_28_" gradientUnits="userSpaceOnUse" x1="1708.6666" y1="658.9565" x2="1722.6666" y2="658.9565">
	<stop  offset="0" style="stop-color:#E0CC84"/>
	<stop  offset="3.571429e-002" style="stop-color:#FFBCA4"/>
	<stop  offset="1" style="stop-color:#FFACBE"/>
</linearGradient>
<path id="XMLID_166_" fill="url(#XMLID_28_)" d="M1719.2,671.1h-7.1c-1.9,0-3.4-1.5-3.4-3.4v-17.4c0-1.9,1.5-3.4,3.4-3.4h7.1
	c1.9,0,3.4,1.5,3.4,3.4v17.4C1722.7,669.6,1721.1,671.1,1719.2,671.1z"/>
<linearGradient id="XMLID_31_" gradientUnits="userSpaceOnUse" x1="1740" y1="658.9565" x2="1754" y2="658.9565">
	<stop  offset="0" style="stop-color:#E0CC84"/>
	<stop  offset="3.571429e-002" style="stop-color:#FFBCA4"/>
	<stop  offset="1" style="stop-color:#FFACBE"/>
</linearGradient>
<path id="XMLID_167_" fill="url(#XMLID_31_)" d="M1750.6,671.1h-7.1c-1.9,0-3.4-1.5-3.4-3.4v-17.4c0-1.9,1.5-3.4,3.4-3.4h7.1
	c1.9,0,3.4,1.5,3.4,3.4v17.4C1754,669.6,1752.5,671.1,1750.6,671.1z"/>
<path id="XMLID_374_" fill="#634C72" d="M1531.2,705.5h-7.1c-1.9,0-3.4-1.5-3.4-3.4v-17.4c0-1.9,1.5-3.4,3.4-3.4h7.1
	c1.9,0,3.4,1.5,3.4,3.4v17.4C1534.7,703.9,1533.1,705.5,1531.2,705.5z"/>
<linearGradient id="XMLID_32_" gradientUnits="userSpaceOnUse" x1="1552" y1="693.3327" x2="1566" y2="693.3327">
	<stop  offset="0" style="stop-color:#E0CC84"/>
	<stop  offset="3.571429e-002" style="stop-color:#FFBCA4"/>
	<stop  offset="1" style="stop-color:#FFACBE"/>
</linearGradient>
<path id="XMLID_373_" fill="url(#XMLID_32_)" d="M1562.6,705.5h-7.1c-1.9,0-3.4-1.5-3.4-3.4v-17.4c0-1.9,1.5-3.4,3.4-3.4h7.1
	c1.9,0,3.4,1.5,3.4,3.4v17.4C1566,703.9,1564.5,705.5,1562.6,705.5z"/>
<path id="XMLID_372_" fill="#634C72" d="M1593.9,705.5h-7.1c-1.9,0-3.4-1.5-3.4-3.4v-17.4c0-1.9,1.5-3.4,3.4-3.4h7.1
	c1.9,0,3.4,1.5,3.4,3.4v17.4C1597.3,703.9,1595.8,705.5,1593.9,705.5z"/>
<path id="XMLID_371_" fill="#634C72" d="M1625.2,705.5h-7.1c-1.9,0-3.4-1.5-3.4-3.4v-17.4c0-1.9,1.5-3.4,3.4-3.4h7.1
	c1.9,0,3.4,1.5,3.4,3.4v17.4C1628.7,703.9,1627.1,705.5,1625.2,705.5z"/>
<linearGradient id="XMLID_35_" gradientUnits="userSpaceOnUse" x1="1646" y1="693.3327" x2="1660" y2="693.3327">
	<stop  offset="0" style="stop-color:#E0CC84"/>
	<stop  offset="3.571429e-002" style="stop-color:#FFBCA4"/>
	<stop  offset="1" style="stop-color:#FFACBE"/>
</linearGradient>
<path id="XMLID_370_" fill="url(#XMLID_35_)" d="M1656.6,705.5h-7.1c-1.9,0-3.4-1.5-3.4-3.4v-17.4c0-1.9,1.5-3.4,3.4-3.4h7.1
	c1.9,0,3.4,1.5,3.4,3.4v17.4C1660,703.9,1658.5,705.5,1656.6,705.5z"/>
<path id="XMLID_170_" fill="#634C72" d="M1687.9,705.5h-7.1c-1.9,0-3.4-1.5-3.4-3.4v-17.4c0-1.9,1.5-3.4,3.4-3.4h7.1
	c1.9,0,3.4,1.5,3.4,3.4v17.4C1691.3,703.9,1689.8,705.5,1687.9,705.5z"/>
<path id="XMLID_169_" fill="#634C72" d="M1719.2,705.5h-7.1c-1.9,0-3.4-1.5-3.4-3.4v-17.4c0-1.9,1.5-3.4,3.4-3.4h7.1
	c1.9,0,3.4,1.5,3.4,3.4v17.4C1722.7,703.9,1721.1,705.5,1719.2,705.5z"/>
<path id="XMLID_168_" fill="#634C72" d="M1750.6,705.5h-7.1c-1.9,0-3.4-1.5-3.4-3.4v-17.4c0-1.9,1.5-3.4,3.4-3.4h7.1
	c1.9,0,3.4,1.5,3.4,3.4v17.4C1754,703.9,1752.5,705.5,1750.6,705.5z"/>
<rect id="XMLID_247_" x="1439.3" y="634.7" fill="#634C72" width="14" height="24.3"/>
<rect id="XMLID_246_" x="1468" y="634.7" fill="#634C72" width="14" height="24.3"/>
<rect id="XMLID_245_" x="1382" y="673.5" fill="#634C72" width="14" height="24.3"/>
<linearGradient id="XMLID_37_" gradientUnits="userSpaceOnUse" x1="1417.6666" y1="697.7573" x2="1417.6666" y2="673.457">
	<stop  offset="0" style="stop-color:#E0CC84"/>
	<stop  offset="3.571429e-002" style="stop-color:#FFBCA4"/>
	<stop  offset="1" style="stop-color:#FFACBE"/>
</linearGradient>
<rect id="XMLID_244_" x="1410.7" y="673.5" fill="url(#XMLID_37_)" width="14" height="24.3"/>
<rect id="XMLID_243_" x="1439.3" y="673.5" fill="#634C72" width="14" height="24.3"/>
<rect id="XMLID_242_" x="1468" y="673.5" fill="#634C72" width="14" height="24.3"/>
<linearGradient id="XMLID_38_" gradientUnits="userSpaceOnUse" x1="1432" y1="511.75" x2="1432" y2="509.7534">
	<stop  offset="0" style="stop-color:#893DA0"/>
	<stop  offset="1" style="stop-color:#9457D9"/>
</linearGradient>
<rect id="XMLID_202_" x="1367" y="509.8" fill="url(#XMLID_38_)" width="130" height="2"/>
<linearGradient id="XMLID_42_" gradientUnits="userSpaceOnUse" x1="1432" y1="550.4966" x2="1432" y2="548.5">
	<stop  offset="0" style="stop-color:#893DA0"/>
	<stop  offset="1" style="stop-color:#9457D9"/>
</linearGradient>
<rect id="XMLID_235_" x="1367" y="548.5" fill="url(#XMLID_42_)" width="130" height="2"/>
<linearGradient id="XMLID_43_" gradientUnits="userSpaceOnUse" x1="1432" y1="589.2432" x2="1432" y2="587.2466">
	<stop  offset="0" style="stop-color:#893DA0"/>
	<stop  offset="1" style="stop-color:#9457D9"/>
</linearGradient>
<rect id="XMLID_236_" x="1367" y="587.2" fill="url(#XMLID_43_)" width="130" height="2"/>
<linearGradient id="XMLID_44_" gradientUnits="userSpaceOnUse" x1="1432" y1="627.9897" x2="1432" y2="625.9931">
	<stop  offset="0" style="stop-color:#893DA0"/>
	<stop  offset="1" style="stop-color:#9457D9"/>
</linearGradient>
<rect id="XMLID_237_" x="1367" y="626" fill="url(#XMLID_44_)" width="130" height="2"/>
<linearGradient id="XMLID_45_" gradientUnits="userSpaceOnUse" x1="1432" y1="666.7363" x2="1432" y2="664.7397">
	<stop  offset="0" style="stop-color:#893DA0"/>
	<stop  offset="1" style="stop-color:#9457D9"/>
</linearGradient>
<rect id="XMLID_238_" x="1367" y="664.7" fill="url(#XMLID_45_)" width="130" height="2"/>
<linearGradient id="XMLID_46_" gradientUnits="userSpaceOnUse" x1="1432" y1="705.4828" x2="1432" y2="703.4863">
	<stop  offset="0" style="stop-color:#893DA0"/>
	<stop  offset="1" style="stop-color:#9457D9"/>
</linearGradient>
<rect id="XMLID_239_" x="1367" y="703.5" fill="url(#XMLID_46_)" width="130" height="2"/>
<linearGradient id="XMLID_47_" gradientUnits="userSpaceOnUse" x1="648" y1="841.2517" x2="648" y2="219.7805">
	<stop  offset="0" style="stop-color:#893DA0"/>
	<stop  offset="1" style="stop-color:#9457D9"/>
</linearGradient>
<rect id="XMLID_329_" x="583" y="465.2" fill="url(#XMLID_47_)" width="130" height="254.8"/>
<linearGradient id="XMLID_48_" gradientUnits="userSpaceOnUse" x1="598" y1="491.6033" x2="612" y2="491.6033">
	<stop  offset="0" style="stop-color:#E0CC84"/>
	<stop  offset="3.571429e-002" style="stop-color:#FFBCA4"/>
	<stop  offset="1" style="stop-color:#FFACBE"/>
</linearGradient>
<rect id="XMLID_328_" x="598" y="479.5" fill="url(#XMLID_48_)" width="14" height="24.3"/>
<rect id="XMLID_327_" x="626.7" y="479.5" fill="#634C72" width="14" height="24.3"/>
<linearGradient id="XMLID_49_" gradientUnits="userSpaceOnUse" x1="655.3333" y1="491.6033" x2="669.3333" y2="491.6033">
	<stop  offset="0" style="stop-color:#E0CC84"/>
	<stop  offset="3.571429e-002" style="stop-color:#FFBCA4"/>
	<stop  offset="1" style="stop-color:#FFACBE"/>
</linearGradient>
<rect id="XMLID_326_" x="655.3" y="479.5" fill="url(#XMLID_49_)" width="14" height="24.3"/>
<rect id="XMLID_325_" x="684" y="479.5" fill="#634C72" width="14" height="24.3"/>
<rect id="XMLID_324_" x="598" y="518.3" fill="#634C72" width="14" height="24.3"/>
<linearGradient id="XMLID_50_" gradientUnits="userSpaceOnUse" x1="626.6667" y1="530.4041" x2="640.6667" y2="530.4041">
	<stop  offset="0" style="stop-color:#E0CC84"/>
	<stop  offset="3.571429e-002" style="stop-color:#FFBCA4"/>
	<stop  offset="1" style="stop-color:#FFACBE"/>
</linearGradient>
<rect id="XMLID_323_" x="626.7" y="518.3" fill="url(#XMLID_50_)" width="14" height="24.3"/>
<rect id="XMLID_322_" x="655.3" y="518.3" fill="#634C72" width="14" height="24.3"/>
<rect id="XMLID_321_" x="684" y="518.3" fill="#634C72" width="14" height="24.3"/>
<rect id="XMLID_320_" x="598" y="557.1" fill="#634C72" width="14" height="24.3"/>
<rect id="XMLID_319_" x="626.7" y="557.1" fill="#634C72" width="14" height="24.3"/>
<linearGradient id="XMLID_51_" gradientUnits="userSpaceOnUse" x1="655.3333" y1="569.2048" x2="669.3333" y2="569.2048">
	<stop  offset="0" style="stop-color:#E0CC84"/>
	<stop  offset="3.571429e-002" style="stop-color:#FFBCA4"/>
	<stop  offset="1" style="stop-color:#FFACBE"/>
</linearGradient>
<rect id="XMLID_318_" x="655.3" y="557.1" fill="url(#XMLID_51_)" width="14" height="24.3"/>
<linearGradient id="XMLID_52_" gradientUnits="userSpaceOnUse" x1="684" y1="569.2048" x2="698" y2="569.2048">
	<stop  offset="0" style="stop-color:#E0CC84"/>
	<stop  offset="3.571429e-002" style="stop-color:#FFBCA4"/>
	<stop  offset="1" style="stop-color:#FFACBE"/>
</linearGradient>
<rect id="XMLID_317_" x="684" y="557.1" fill="url(#XMLID_52_)" width="14" height="24.3"/>
<rect id="XMLID_316_" x="598" y="595.9" fill="#634C72" width="14" height="24.3"/>
<rect id="XMLID_315_" x="626.7" y="595.9" fill="#634C72" width="14" height="24.3"/>
<rect id="XMLID_314_" x="655.3" y="595.9" fill="#634C72" width="14" height="24.3"/>
<linearGradient id="XMLID_53_" gradientUnits="userSpaceOnUse" x1="684" y1="608.0056" x2="698" y2="608.0056">
	<stop  offset="0" style="stop-color:#E0CC84"/>
	<stop  offset="3.571429e-002" style="stop-color:#FFBCA4"/>
	<stop  offset="1" style="stop-color:#FFACBE"/>
</linearGradient>
<rect id="XMLID_313_" x="684" y="595.9" fill="url(#XMLID_53_)" width="14" height="24.3"/>
<rect id="XMLID_312_" x="598" y="634.7" fill="#634C72" width="14" height="24.3"/>
<rect id="XMLID_311_" x="626.7" y="634.7" fill="#634C72" width="14" height="24.3"/>
<rect id="XMLID_310_" x="655.3" y="634.7" fill="#634C72" width="14" height="24.3"/>
<rect id="XMLID_309_" x="684" y="634.7" fill="#634C72" width="14" height="24.3"/>
<rect id="XMLID_308_" x="598" y="673.5" fill="#634C72" width="14" height="24.3"/>
<linearGradient id="XMLID_54_" gradientUnits="userSpaceOnUse" x1="633.6667" y1="697.7573" x2="633.6667" y2="673.457">
	<stop  offset="0" style="stop-color:#E0CC84"/>
	<stop  offset="3.571429e-002" style="stop-color:#FFBCA4"/>
	<stop  offset="1" style="stop-color:#FFACBE"/>
</linearGradient>
<rect id="XMLID_307_" x="626.7" y="673.5" fill="url(#XMLID_54_)" width="14" height="24.3"/>
<rect id="XMLID_306_" x="655.3" y="673.5" fill="#634C72" width="14" height="24.3"/>
<rect id="XMLID_305_" x="684" y="673.5" fill="#634C72" width="14" height="24.3"/>
<linearGradient id="XMLID_55_" gradientUnits="userSpaceOnUse" x1="648" y1="511.75" x2="648" y2="509.7534">
	<stop  offset="0" style="stop-color:#893DA0"/>
	<stop  offset="1" style="stop-color:#9457D9"/>
</linearGradient>
<rect id="XMLID_304_" x="583" y="509.8" fill="url(#XMLID_55_)" width="130" height="2"/>
<linearGradient id="XMLID_57_" gradientUnits="userSpaceOnUse" x1="648" y1="550.4966" x2="648" y2="548.5">
	<stop  offset="0" style="stop-color:#893DA0"/>
	<stop  offset="1" style="stop-color:#9457D9"/>
</linearGradient>
<rect id="XMLID_303_" x="583" y="548.5" fill="url(#XMLID_57_)" width="130" height="2"/>
<linearGradient id="XMLID_58_" gradientUnits="userSpaceOnUse" x1="648" y1="589.2432" x2="648" y2="587.2466">
	<stop  offset="0" style="stop-color:#893DA0"/>
	<stop  offset="1" style="stop-color:#9457D9"/>
</linearGradient>
<rect id="XMLID_302_" x="583" y="587.2" fill="url(#XMLID_58_)" width="130" height="2"/>
<linearGradient id="XMLID_59_" gradientUnits="userSpaceOnUse" x1="648" y1="627.9897" x2="648" y2="625.9931">
	<stop  offset="0" style="stop-color:#893DA0"/>
	<stop  offset="1" style="stop-color:#9457D9"/>
</linearGradient>
<rect id="XMLID_301_" x="583" y="626" fill="url(#XMLID_59_)" width="130" height="2"/>
<linearGradient id="XMLID_63_" gradientUnits="userSpaceOnUse" x1="648" y1="666.7363" x2="648" y2="664.7397">
	<stop  offset="0" style="stop-color:#893DA0"/>
	<stop  offset="1" style="stop-color:#9457D9"/>
</linearGradient>
<rect id="XMLID_300_" x="583" y="664.7" fill="url(#XMLID_63_)" width="130" height="2"/>
<linearGradient id="XMLID_64_" gradientUnits="userSpaceOnUse" x1="648" y1="705.4828" x2="648" y2="703.4863">
	<stop  offset="0" style="stop-color:#893DA0"/>
	<stop  offset="1" style="stop-color:#9457D9"/>
</linearGradient>
<rect id="XMLID_299_" x="583" y="703.5" fill="url(#XMLID_64_)" width="130" height="2"/>
<linearGradient id="XMLID_65_" gradientUnits="userSpaceOnUse" x1="769" y1="720" x2="769" y2="446.5">
	<stop  offset="0" style="stop-color:#893DA0"/>
	<stop  offset="1" style="stop-color:#9457D9"/>
</linearGradient>
<rect id="XMLID_234_" x="756.7" y="446.5" fill="url(#XMLID_65_)" width="24.7" height="273.5"/>
<linearGradient id="XMLID_66_" gradientUnits="userSpaceOnUse" x1="850.0914" y1="720" x2="850.0914" y2="446.5">
	<stop  offset="0" style="stop-color:#893DA0"/>
	<stop  offset="1" style="stop-color:#9457D9"/>
</linearGradient>
<rect id="XMLID_241_" x="837.8" y="446.5" fill="url(#XMLID_66_)" width="24.7" height="273.5"/>
<linearGradient id="XMLID_71_" gradientUnits="userSpaceOnUse" x1="931.1828" y1="720" x2="931.1828" y2="446.5">
	<stop  offset="0" style="stop-color:#893DA0"/>
	<stop  offset="1" style="stop-color:#9457D9"/>
</linearGradient>
<rect id="XMLID_267_" x="918.8" y="446.5" fill="url(#XMLID_71_)" width="24.7" height="273.5"/>
<linearGradient id="XMLID_72_" gradientUnits="userSpaceOnUse" x1="792.5" y1="494.3333" x2="792.5" y2="446.5">
	<stop  offset="0" style="stop-color:#E0CC84"/>
	<stop  offset="3.571429e-002" style="stop-color:#FFBCA4"/>
	<stop  offset="1" style="stop-color:#FFACBE"/>
</linearGradient>
<rect id="XMLID_240_" x="781.3" y="446.5" fill="url(#XMLID_72_)" width="22.3" height="47.8"/>
<rect id="XMLID_269_" x="734.3" y="446.5" fill="#634C72" width="22.3" height="47.8"/>
<rect id="XMLID_271_" x="781.3" y="501.1" fill="#634C72" width="22.3" height="47.8"/>
<linearGradient id="XMLID_73_" gradientUnits="userSpaceOnUse" x1="745.5" y1="548.8932" x2="745.5" y2="501.0599">
	<stop  offset="0" style="stop-color:#E0CC84"/>
	<stop  offset="3.571429e-002" style="stop-color:#FFBCA4"/>
	<stop  offset="1" style="stop-color:#FFACBE"/>
</linearGradient>
<rect id="XMLID_270_" x="734.3" y="501.1" fill="url(#XMLID_73_)" width="22.3" height="47.8"/>
<linearGradient id="XMLID_74_" gradientUnits="userSpaceOnUse" x1="792.5" y1="603.4531" x2="792.5" y2="555.6198">
	<stop  offset="0" style="stop-color:#E0CC84"/>
	<stop  offset="3.571429e-002" style="stop-color:#FFBCA4"/>
	<stop  offset="1" style="stop-color:#FFACBE"/>
</linearGradient>
<rect id="XMLID_273_" x="781.3" y="555.6" fill="url(#XMLID_74_)" width="22.3" height="47.8"/>
<rect id="XMLID_272_" x="734.3" y="555.6" fill="#634C72" width="22.3" height="47.8"/>
<rect id="XMLID_275_" x="781.3" y="610.2" fill="#634C72" width="22.3" height="47.8"/>
<linearGradient id="XMLID_75_" gradientUnits="userSpaceOnUse" x1="745.5" y1="658.013" x2="745.5" y2="610.1797">
	<stop  offset="0" style="stop-color:#E0CC84"/>
	<stop  offset="3.571429e-002" style="stop-color:#FFBCA4"/>
	<stop  offset="1" style="stop-color:#FFACBE"/>
</linearGradient>
<rect id="XMLID_274_" x="734.3" y="610.2" fill="url(#XMLID_75_)" width="22.3" height="47.8"/>
<rect id="XMLID_277_" x="781.3" y="664.7" fill="#634C72" width="22.3" height="47.8"/>
<rect id="XMLID_276_" x="734.3" y="664.7" fill="#634C72" width="22.3" height="47.8"/>
<linearGradient id="XMLID_76_" gradientUnits="userSpaceOnUse" x1="873.5914" y1="494.3333" x2="873.5914" y2="446.5">
	<stop  offset="0" style="stop-color:#E0CC84"/>
	<stop  offset="3.571429e-002" style="stop-color:#FFBCA4"/>
	<stop  offset="1" style="stop-color:#FFACBE"/>
</linearGradient>
<rect id="XMLID_287_" x="862.4" y="446.5" fill="url(#XMLID_76_)" width="22.3" height="47.8"/>
<rect id="XMLID_286_" x="815.4" y="446.5" fill="#634C72" width="22.3" height="47.8"/>
<linearGradient id="XMLID_77_" gradientUnits="userSpaceOnUse" x1="873.5914" y1="548.8932" x2="873.5914" y2="501.0599">
	<stop  offset="0" style="stop-color:#E0CC84"/>
	<stop  offset="3.571429e-002" style="stop-color:#FFBCA4"/>
	<stop  offset="1" style="stop-color:#FFACBE"/>
</linearGradient>
<rect id="XMLID_285_" x="862.4" y="501.1" fill="url(#XMLID_77_)" width="22.3" height="47.8"/>
<linearGradient id="XMLID_78_" gradientUnits="userSpaceOnUse" x1="826.5914" y1="548.8932" x2="826.5914" y2="501.0599">
	<stop  offset="0" style="stop-color:#E0CC84"/>
	<stop  offset="3.571429e-002" style="stop-color:#FFBCA4"/>
	<stop  offset="1" style="stop-color:#FFACBE"/>
</linearGradient>
<rect id="XMLID_284_" x="815.4" y="501.1" fill="url(#XMLID_78_)" width="22.3" height="47.8"/>
<rect id="XMLID_283_" x="862.4" y="555.6" fill="#634C72" width="22.3" height="47.8"/>
<rect id="XMLID_282_" x="815.4" y="555.6" fill="#634C72" width="22.3" height="47.8"/>
<rect id="XMLID_281_" x="862.4" y="610.2" fill="#634C72" width="22.3" height="47.8"/>
<linearGradient id="XMLID_79_" gradientUnits="userSpaceOnUse" x1="826.5914" y1="658.013" x2="826.5914" y2="610.1797">
	<stop  offset="0" style="stop-color:#E0CC84"/>
	<stop  offset="3.571429e-002" style="stop-color:#FFBCA4"/>
	<stop  offset="1" style="stop-color:#FFACBE"/>
</linearGradient>
<rect id="XMLID_280_" x="815.4" y="610.2" fill="url(#XMLID_79_)" width="22.3" height="47.8"/>
<linearGradient id="XMLID_80_" gradientUnits="userSpaceOnUse" x1="873.5914" y1="712.5729" x2="873.5914" y2="664.7396">
	<stop  offset="0" style="stop-color:#E0CC84"/>
	<stop  offset="3.571429e-002" style="stop-color:#FFBCA4"/>
	<stop  offset="1" style="stop-color:#FFACBE"/>
</linearGradient>
<rect id="XMLID_279_" x="862.4" y="664.7" fill="url(#XMLID_80_)" width="22.3" height="47.8"/>
<rect id="XMLID_278_" x="815.4" y="664.7" fill="#634C72" width="22.3" height="47.8"/>
<rect id="XMLID_298_" x="943.5" y="446.5" fill="#634C72" width="22.3" height="47.8"/>
<rect id="XMLID_296_" x="896.5" y="446.5" fill="#634C72" width="22.3" height="47.8"/>
<rect id="XMLID_295_" x="943.5" y="501.1" fill="#634C72" width="22.3" height="47.8"/>
<rect id="XMLID_294_" x="896.5" y="501.1" fill="#634C72" width="22.3" height="47.8"/>
<linearGradient id="XMLID_81_" gradientUnits="userSpaceOnUse" x1="954.6828" y1="603.4531" x2="954.6828" y2="555.6198">
	<stop  offset="0" style="stop-color:#E0CC84"/>
	<stop  offset="3.571429e-002" style="stop-color:#FFBCA4"/>
	<stop  offset="1" style="stop-color:#FFACBE"/>
</linearGradient>
<rect id="XMLID_293_" x="943.5" y="555.6" fill="url(#XMLID_81_)" width="22.3" height="47.8"/>
<linearGradient id="XMLID_82_" gradientUnits="userSpaceOnUse" x1="907.6828" y1="603.4531" x2="907.6828" y2="555.6198">
	<stop  offset="0" style="stop-color:#E0CC84"/>
	<stop  offset="3.571429e-002" style="stop-color:#FFBCA4"/>
	<stop  offset="1" style="stop-color:#FFACBE"/>
</linearGradient>
<rect id="XMLID_292_" x="896.5" y="555.6" fill="url(#XMLID_82_)" width="22.3" height="47.8"/>
<rect id="XMLID_291_" x="943.5" y="610.2" fill="#634C72" width="22.3" height="47.8"/>
<linearGradient id="XMLID_83_" gradientUnits="userSpaceOnUse" x1="907.6828" y1="658.013" x2="907.6828" y2="610.1797">
	<stop  offset="0" style="stop-color:#E0CC84"/>
	<stop  offset="3.571429e-002" style="stop-color:#FFBCA4"/>
	<stop  offset="1" style="stop-color:#FFACBE"/>
</linearGradient>
<rect id="XMLID_290_" x="896.5" y="610.2" fill="url(#XMLID_83_)" width="22.3" height="47.8"/>
<rect id="XMLID_289_" x="943.5" y="664.7" fill="#634C72" width="22.3" height="47.8"/>
<rect id="XMLID_288_" x="896.5" y="664.7" fill="#634C72" width="22.3" height="47.8"/>
<linearGradient id="XMLID_84_" gradientUnits="userSpaceOnUse" x1="636" y1="465.2283" x2="636" y2="437.3333">
	<stop  offset="0" style="stop-color:#893DA0"/>
	<stop  offset="1" style="stop-color:#9457D9"/>
</linearGradient>
<rect id="XMLID_268_" x="616.7" y="437.3" fill="url(#XMLID_84_)" width="38.7" height="27.9"/>
<linearGradient id="XMLID_85_" gradientUnits="userSpaceOnUse" x1="678.125" y1="465.2283" x2="678.125" y2="451.2808">
	<stop  offset="0" style="stop-color:#893DA0"/>
	<stop  offset="1" style="stop-color:#9457D9"/>
</linearGradient>
<rect id="XMLID_330_" x="672.3" y="451.3" fill="url(#XMLID_85_)" width="11.7" height="13.9"/>
<linearGradient id="XMLID_86_" gradientUnits="userSpaceOnUse" x1="692.125" y1="465.2283" x2="692.125" y2="451.2808">
	<stop  offset="0" style="stop-color:#893DA0"/>
	<stop  offset="1" style="stop-color:#9457D9"/>
</linearGradient>
<rect id="XMLID_332_" x="686.3" y="451.3" fill="url(#XMLID_86_)" width="11.7" height="13.9"/>
<linearGradient id="XMLID_87_" gradientUnits="userSpaceOnUse" x1="312.8539" y1="421" x2="312.8539" y2="406.75">
	<stop  offset="0" style="stop-color:#893DA0"/>
	<stop  offset="1" style="stop-color:#9457D9"/>
</linearGradient>
<rect id="XMLID_331_" x="297.3" y="406.8" fill="url(#XMLID_87_)" width="31.2" height="14.3"/>
<linearGradient id="XMLID_88_" gradientUnits="userSpaceOnUse" x1="359" y1="490.5" x2="392" y2="490.5">
	<stop  offset="0" style="stop-color:#893DA0"/>
	<stop  offset="1" style="stop-color:#9457D9"/>
</linearGradient>
<line id="XMLID_134_" fill="#634C72" stroke="url(#XMLID_88_)" stroke-miterlimit="10" x1="359" y1="490.5" x2="392" y2="490.5"/>
<linearGradient id="XMLID_89_" gradientUnits="userSpaceOnUse" x1="375.9167" y1="421" x2="375.9167" y2="418.1667">
	<stop  offset="0" style="stop-color:#893DA0"/>
	<stop  offset="1" style="stop-color:#9457D9"/>
</linearGradient>
<rect id="XMLID_366_" x="355.5" y="418.2" fill="url(#XMLID_89_)" width="40.8" height="2.8"/>
<linearGradient id="XMLID_90_" gradientUnits="userSpaceOnUse" x1="359" y1="458.5" x2="360" y2="458.5">
	<stop  offset="0" style="stop-color:#893DA0"/>
	<stop  offset="1" style="stop-color:#9457D9"/>
</linearGradient>
<line id="XMLID_368_" fill="#634C72" stroke="url(#XMLID_90_)" stroke-miterlimit="10" x1="359.5" y1="421" x2="359.5" y2="496"/>
<linearGradient id="XMLID_91_" gradientUnits="userSpaceOnUse" x1="392" y1="458.5" x2="393" y2="458.5">
	<stop  offset="0" style="stop-color:#893DA0"/>
	<stop  offset="1" style="stop-color:#9457D9"/>
</linearGradient>
<line id="XMLID_369_" fill="#634C72" stroke="url(#XMLID_91_)" stroke-miterlimit="10" x1="392.5" y1="421" x2="392.5" y2="496"/>
<linearGradient id="XMLID_92_" gradientUnits="userSpaceOnUse" x1="364" y1="493.5" x2="365" y2="493.5">
	<stop  offset="0" style="stop-color:#893DA0"/>
	<stop  offset="1" style="stop-color:#9457D9"/>
</linearGradient>
<line id="XMLID_135_" fill="#634C72" stroke="url(#XMLID_92_)" stroke-miterlimit="10" x1="364.5" y1="491" x2="364.5" y2="496"/>
<linearGradient id="XMLID_93_" gradientUnits="userSpaceOnUse" x1="370" y1="493.5" x2="371" y2="493.5">
	<stop  offset="0" style="stop-color:#893DA0"/>
	<stop  offset="1" style="stop-color:#9457D9"/>
</linearGradient>
<line id="XMLID_136_" fill="#634C72" stroke="url(#XMLID_93_)" stroke-miterlimit="10" x1="370.5" y1="491" x2="370.5" y2="496"/>
<linearGradient id="XMLID_94_" gradientUnits="userSpaceOnUse" x1="376" y1="493.5" x2="377" y2="493.5">
	<stop  offset="0" style="stop-color:#893DA0"/>
	<stop  offset="1" style="stop-color:#9457D9"/>
</linearGradient>
<line id="XMLID_154_" fill="#634C72" stroke="url(#XMLID_94_)" stroke-miterlimit="10" x1="376.5" y1="491" x2="376.5" y2="496"/>
<linearGradient id="XMLID_95_" gradientUnits="userSpaceOnUse" x1="382" y1="493.5" x2="383" y2="493.5">
	<stop  offset="0" style="stop-color:#893DA0"/>
	<stop  offset="1" style="stop-color:#9457D9"/>
</linearGradient>
<line id="XMLID_155_" fill="#634C72" stroke="url(#XMLID_95_)" stroke-miterlimit="10" x1="382.5" y1="491" x2="382.5" y2="496"/>
<linearGradient id="XMLID_96_" gradientUnits="userSpaceOnUse" x1="388" y1="493.5" x2="389" y2="493.5">
	<stop  offset="0" style="stop-color:#893DA0"/>
	<stop  offset="1" style="stop-color:#9457D9"/>
</linearGradient>
<line id="XMLID_156_" fill="#634C72" stroke="url(#XMLID_96_)" stroke-miterlimit="10" x1="388.5" y1="491" x2="388.5" y2="496"/>
<linearGradient id="XMLID_97_" gradientUnits="userSpaceOnUse" x1="376" y1="502.2148" x2="376" y2="495.4102">
	<stop  offset="0" style="stop-color:#893DA0"/>
	<stop  offset="1" style="stop-color:#9457D9"/>
</linearGradient>
<rect id="XMLID_367_" x="358.3" y="495.4" fill="url(#XMLID_97_)" width="35.5" height="6.8"/>
<linearGradient id="XMLID_98_" gradientUnits="userSpaceOnUse" x1="358.375" y1="415.8646" x2="360.875" y2="415.8646">
	<stop  offset="0" style="stop-color:#893DA0"/>
	<stop  offset="1" style="stop-color:#9457D9"/>
</linearGradient>
<rect id="XMLID_130_" x="358.4" y="413.6" fill="url(#XMLID_98_)" width="2.5" height="4.6"/>
<linearGradient id="XMLID_99_" gradientUnits="userSpaceOnUse" x1="391.25" y1="415.8646" x2="393.75" y2="415.8646">
	<stop  offset="0" style="stop-color:#893DA0"/>
	<stop  offset="1" style="stop-color:#9457D9"/>
</linearGradient>
<rect id="XMLID_158_" x="391.3" y="413.6" fill="url(#XMLID_99_)" width="2.5" height="4.6"/>
<linearGradient id="XMLID_100_" gradientUnits="userSpaceOnUse" x1="1578.3293" y1="609.3036" x2="1598.3562" y2="609.3036" gradientTransform="matrix(4.489700e-011 1 -1 4.489700e-011 2190.9702 -972.363)">
	<stop  offset="0" style="stop-color:#893DA0"/>
	<stop  offset="1" style="stop-color:#9457D9"/>
</linearGradient>
<rect id="XMLID_157_" x="1565" y="606" fill="url(#XMLID_100_)" width="33.4" height="20"/>
<linearGradient id="XMLID_101_" gradientUnits="userSpaceOnUse" x1="1576.363" y1="521.9817" x2="1598.3562" y2="521.9817" gradientTransform="matrix(4.489700e-011 1 -1 4.489700e-011 2190.9702 -972.363)">
	<stop  offset="0" style="stop-color:#893DA0"/>
	<stop  offset="1" style="stop-color:#9457D9"/>
</linearGradient>
<rect id="XMLID_376_" x="1660.6" y="604" fill="url(#XMLID_101_)" width="16.7" height="22"/>
<linearGradient id="XMLID_102_" gradientUnits="userSpaceOnUse" x1="1576.363" y1="480.2317" x2="1598.3562" y2="480.2317" gradientTransform="matrix(4.489700e-011 1 -1 4.489700e-011 2190.9702 -972.363)">
	<stop  offset="0" style="stop-color:#893DA0"/>
	<stop  offset="1" style="stop-color:#9457D9"/>
</linearGradient>
<rect id="XMLID_377_" x="1686.6" y="604" fill="url(#XMLID_102_)" width="48.2" height="22"/>
<linearGradient id="XMLID_103_" gradientUnits="userSpaceOnUse" x1="1693.6666" y1="602.25" x2="1727.8334" y2="602.25">
	<stop  offset="0" style="stop-color:#893DA0"/>
	<stop  offset="1" style="stop-color:#9457D9"/>
</linearGradient>
<rect id="XMLID_375_" x="1693.7" y="600.5" fill="url(#XMLID_103_)" width="34.2" height="3.5"/>
<linearGradient id="XMLID_104_" gradientUnits="userSpaceOnUse" x1="1569.1666" y1="605.3126" x2="1594.6666" y2="605.3126">
	<stop  offset="0" style="stop-color:#893DA0"/>
	<stop  offset="1" style="stop-color:#9457D9"/>
</linearGradient>
<rect id="XMLID_378_" x="1569.2" y="604.7" fill="url(#XMLID_104_)" width="25.5" height="1.3"/>
<linearGradient id="XMLID_105_" gradientUnits="userSpaceOnUse" x1="1571.1666" y1="603.8328" x2="1592.5834" y2="603.8328">
	<stop  offset="0" style="stop-color:#893DA0"/>
	<stop  offset="1" style="stop-color:#9457D9"/>
</linearGradient>
<rect id="XMLID_379_" x="1571.2" y="603" fill="url(#XMLID_105_)" width="21.4" height="1.7"/>
</svg>
